<svg width="15" height="15" viewBox="0 0 15 15" fill="none" xmlns="http://www.w3.org/2000/svg">
<path d="M6.23333 6.79377C6.44046 6.88047 6.6553 6.94743 6.875 6.99378V14.9271C6.74026 14.8924 6.60911 14.8449 6.48333 14.7854L1.48333 12.5604C1.04186 12.3639 0.666797 12.0437 0.403541 11.6384C0.140285 11.2332 0.000117567 10.7603 0 10.2771V4.72711C0.000662515 4.50453 0.0314988 4.28307 0.0916666 4.06877L6.23333 6.79377ZM9.85 4.93544L3.05833 1.74377L1.48333 2.44377C1.19929 2.56863 0.94185 2.74686 0.725 2.96877L6.73333 5.64378C6.97473 5.75091 7.2359 5.80626 7.5 5.80626C7.7641 5.80626 8.02527 5.75091 8.26667 5.64378L9.85 4.93544ZM14.275 2.96877C14.0581 2.74686 13.8007 2.56863 13.5167 2.44377L8.51667 0.218774C8.19713 0.0745751 7.85057 0 7.5 0C7.14943 0 6.80287 0.0745751 6.48333 0.218774L4.575 1.06877L11.3667 4.26044L14.275 2.96877ZM14.9083 4.06877L11.9833 5.36877V7.41044C11.9833 7.5762 11.9175 7.73517 11.8003 7.85238C11.6831 7.96959 11.5241 8.03544 11.3583 8.03544C11.1926 8.03544 11.0336 7.96959 10.9164 7.85238C10.7992 7.73517 10.7333 7.5762 10.7333 7.41044V5.91878L8.76667 6.79377C8.5582 6.87672 8.34368 6.94358 8.125 6.99378V14.9271C8.25974 14.8924 8.39089 14.8449 8.51667 14.7854L13.5167 12.5604C13.9581 12.3639 14.3332 12.0437 14.5965 11.6384C14.8597 11.2332 14.9999 10.7603 15 10.2771V4.72711C14.9993 4.50453 14.9685 4.28307 14.9083 4.06877Z" fill="#FA9829"/>
</svg>
