<svg width="36" height="36" viewBox="0 0 36 36" fill="none" xmlns="http://www.w3.org/2000/svg">
<g clip-path="url(#clip0_24530_58331)">
<rect width="36" height="36" fill="white"/>
<path fill-rule="evenodd" clip-rule="evenodd" d="M10.4168 0.0770971C9.26194 -0.269385 8.09961 0.595425 8.09961 1.80117V35.6916H14.3996V29.3916C14.3996 28.3974 15.2055 27.5916 16.1996 27.5916H19.7996C20.7937 27.5916 21.5996 28.3974 21.5996 29.3916V35.6916H27.8996V6.66117C27.8996 5.86627 27.3781 5.1655 26.6167 4.9371L10.4168 0.0770971ZM14.3996 10.4916C13.9026 10.4916 13.4996 10.8945 13.4996 11.3916V13.1916C13.4996 13.6886 13.9026 14.0916 14.3996 14.0916H16.1996C16.6966 14.0916 17.0996 13.6886 17.0996 13.1916V11.3916C17.0996 10.8945 16.6966 10.4916 16.1996 10.4916H14.3996ZM13.4996 16.7916C13.4996 16.2946 13.9026 15.8916 14.3996 15.8916H16.1996C16.6966 15.8916 17.0996 16.2946 17.0996 16.7916V18.5916C17.0996 19.0885 16.6966 19.4916 16.1996 19.4916H14.3996C13.9026 19.4916 13.4996 19.0885 13.4996 18.5916V16.7916ZM14.3996 21.2916C13.9026 21.2916 13.4996 21.6946 13.4996 22.1916V23.9916C13.4996 24.4885 13.9026 24.8916 14.3996 24.8916H16.1996C16.6966 24.8916 17.0996 24.4885 17.0996 23.9916V22.1916C17.0996 21.6946 16.6966 21.2916 16.1996 21.2916H14.3996ZM18.8996 11.3916C18.8996 10.8945 19.3026 10.4916 19.7996 10.4916H21.5996C22.0966 10.4916 22.4996 10.8945 22.4996 11.3916V13.1916C22.4996 13.6886 22.0966 14.0916 21.5996 14.0916H19.7996C19.3026 14.0916 18.8996 13.6886 18.8996 13.1916V11.3916ZM19.7996 15.8916C19.3026 15.8916 18.8996 16.2946 18.8996 16.7916V18.5916C18.8996 19.0885 19.3026 19.4916 19.7996 19.4916H21.5996C22.0966 19.4916 22.4996 19.0885 22.4996 18.5916V16.7916C22.4996 16.2946 22.0966 15.8916 21.5996 15.8916H19.7996ZM18.8996 22.1916C18.8996 21.6946 19.3026 21.2916 19.7996 21.2916H21.5996C22.0966 21.2916 22.4996 21.6946 22.4996 22.1916V23.9916C22.4996 24.4885 22.0966 24.8916 21.5996 24.8916H19.7996C19.3026 24.8916 18.8996 24.4885 18.8996 23.9916V22.1916Z" fill="#1455AC"/>
<path d="M6.3 35.6918V5.0918H3.6C2.6059 5.0918 1.8 5.89769 1.8 6.8918V33.8918H0.9C0.402948 33.8918 0 34.2948 0 34.7918C0 35.2888 0.402948 35.6918 0.9 35.6918H6.3Z" fill="#1455AC"/>
<path d="M35.0992 35.6922H29.6992V11.8984L33.2922 13.9516C33.8531 14.2722 34.1992 14.8685 34.1992 15.5145V33.8922H35.0992C35.5962 33.8922 35.9992 34.2952 35.9992 34.7922C35.9992 35.2892 35.5962 35.6922 35.0992 35.6922Z" fill="#1455AC"/>
<path d="M19.7992 35.6916V29.3916H16.1992V35.6916H19.7992Z" fill="#1455AC"/>
</g>
<defs>
<clipPath id="clip0_24530_58331">
<rect width="36" height="36" fill="white"/>
</clipPath>
</defs>
</svg>
