<svg width="36" height="36" viewBox="0 0 36 36" fill="none" xmlns="http://www.w3.org/2000/svg">
<rect width="36" height="36" fill="white"/>
<path fill-rule="evenodd" clip-rule="evenodd" d="M18.4636 3.00801C15.5686 2.90984 12.6437 3.71404 10.1185 5.43027C7.28229 7.35989 5.30024 10.2094 4.38729 13.3948C4.13517 13.3635 3.83327 13.3773 3.47479 13.4805C2.13637 13.8672 1.12972 14.9839 0.677094 15.9673C0.0900359 17.249 -0.157552 18.944 0.103615 20.6939C0.362971 22.4382 1.08672 23.8761 1.99198 24.7688C2.89995 25.6619 3.92515 25.9523 4.94357 25.7343C6.45987 25.4048 7.21168 25.1582 6.9994 23.7199L5.97148 16.7476C6.17879 12.9741 8.09748 9.42176 11.3066 7.2373C15.602 4.31592 21.2336 4.50303 25.3308 7.70553C28.181 9.93055 29.8358 13.2644 30.0268 16.7641L29.3081 21.6414C27.7049 26.1085 23.7303 29.2027 19.1312 29.6419H16.0687C15.2784 29.6419 14.642 30.2899 14.642 31.0936V31.8595C14.642 32.6637 15.2784 33.3117 16.0687 33.3117H19.9301C20.7199 33.3117 21.3536 32.6637 21.3536 31.8595V31.4591C24.8216 30.5972 27.8488 28.4271 29.82 25.4006L31.057 25.7347C32.0637 26.0007 33.1011 25.6619 34.0086 24.7692C34.9139 23.8761 35.6372 22.4387 35.897 20.6943C36.1591 18.9445 35.9042 17.2522 35.324 15.9678C34.7414 14.6834 33.8737 13.8677 32.8721 13.575C32.4525 13.452 31.9971 13.4068 31.6065 13.3948C30.7809 10.5145 29.0813 7.89494 26.6317 5.98238C24.2233 4.1007 21.3586 3.10479 18.4636 3.00801Z" fill="#1455AC"/>
<path fill-rule="evenodd" clip-rule="evenodd" d="M22.983 15.5516C24.0036 15.5516 24.831 16.394 24.8333 17.436C24.831 18.4753 24.0036 19.32 22.983 19.32C21.9596 19.32 21.1299 18.4753 21.1299 17.436C21.1299 16.3945 21.96 15.5516 22.983 15.5516ZM17.9995 15.5516C19.0225 15.5516 19.8499 16.394 19.8499 17.436C19.8499 18.4753 19.0225 19.32 17.9995 19.32C16.9757 19.32 16.1483 18.4753 16.1483 17.436C16.1483 16.3945 16.9757 15.5516 17.9995 15.5516ZM13.0179 15.5516C14.0386 15.5516 14.8682 16.394 14.8682 17.436C14.8682 18.4753 14.0386 19.32 13.0179 19.32C11.995 19.32 11.1671 18.4753 11.1671 17.436C11.1671 16.3945 11.995 15.5516 13.0179 15.5516ZM17.9995 7.45801C12.5725 7.45801 8.19922 11.7643 8.19922 17.436C8.19922 20.1602 9.21084 22.5677 10.8589 24.3341L10.2741 27.0034C10.0812 27.8818 10.6796 28.4727 11.455 28.033L14.015 26.579C15.2317 27.1168 16.5774 27.4141 17.9995 27.4141C23.4283 27.4141 27.7989 23.1106 27.7989 17.436C27.7989 11.7643 23.4283 7.45801 17.9995 7.45801Z" fill="#1455AC"/>
</svg>
