<svg width="45" height="36" viewBox="0 0 45 36" fill="none" xmlns="http://www.w3.org/2000/svg">
<g clip-path="url(#clip0_24530_58351)">
<rect width="45" height="36" fill="white"/>
<path d="M40.4993 24.3625C40.4993 19.8951 37.9364 15.9081 34.098 13.9688C33.9788 22.5343 27.0343 29.4788 18.4688 29.598C20.4081 33.4364 24.3951 35.9993 28.8625 35.9993C30.957 35.9993 32.9939 35.4415 34.7836 34.3815L40.4485 35.9485L38.8815 30.2836C39.9415 28.4939 40.4993 26.457 40.4993 24.3625Z" fill="#1455AC"/>
<path d="M31.9924 13.7462C31.9924 6.16641 25.826 0 18.2462 0C10.6664 0 4.5 6.16641 4.5 13.7462C4.5 16.2165 5.15754 18.6217 6.40615 20.7333L4.55054 27.4416L11.2591 25.5863C13.3707 26.8349 15.7759 27.4924 18.2462 27.4924C25.826 27.4924 31.9924 21.326 31.9924 13.7462ZM16.1368 10.547H14.0274C14.0274 8.2206 15.9198 6.32818 18.2462 6.32818C20.5726 6.32818 22.465 8.2206 22.465 10.547C22.465 11.7277 21.9651 12.8626 21.0931 13.6603L19.3009 15.3005V16.9455H17.1915V14.3716L19.669 12.104C20.1117 11.6989 20.3556 11.146 20.3556 10.547C20.3556 9.38378 19.4094 8.43758 18.2462 8.43758C17.083 8.43758 16.1368 9.38378 16.1368 10.547ZM17.1915 19.0549H19.3009V21.1643H17.1915V19.0549Z" fill="#1455AC"/>
</g>
<defs>
<clipPath id="clip0_24530_58351">
<rect width="45" height="36" fill="white"/>
</clipPath>
</defs>
</svg>
