<svg width="20" height="20" viewBox="0 0 20 20" fill="none" xmlns="http://www.w3.org/2000/svg">
<g clip-path="url(#clip0_24530_73491)">
<path d="M15.8333 0.835938H4.16667C1.86917 0.835938 0 2.7051 0 5.0026V11.6693C0 13.9668 1.86917 15.8359 4.16667 15.8359H9.16667V17.5026H5.83333C5.37333 17.5026 5 17.8759 5 18.3359C5 18.7959 5.37333 19.1693 5.83333 19.1693H14.1667C14.6267 19.1693 15 18.7959 15 18.3359C15 17.8759 14.6267 17.5026 14.1667 17.5026H10.8333V15.8359H15.8333C18.1308 15.8359 20 13.9668 20 11.6693V5.0026C20 2.7051 18.1308 0.835938 15.8333 0.835938ZM16.6667 9.15094C16.6667 9.61094 16.2933 9.98427 15.8333 9.98427C15.3733 9.98427 15 9.61094 15 9.15094V7.84844L12.08 10.7684C11.3458 11.5034 10.065 11.5034 9.33083 10.7684L7.77917 9.21677C7.67083 9.10844 7.495 9.10844 7.38667 9.21677L4.75833 11.8451C4.59583 12.0076 4.3825 12.0893 4.16917 12.0893C3.95583 12.0893 3.7425 12.0076 3.58 11.8451C3.25417 11.5193 3.25417 10.9926 3.58 10.6668L6.20833 8.03844C6.96583 7.2801 8.2 7.2801 8.9575 8.03844L10.5092 9.59011C10.6508 9.73177 10.76 9.73177 10.9017 9.59011L13.8217 6.6701H12.5C12.04 6.6701 11.6667 6.29677 11.6667 5.83677C11.6667 5.37677 12.04 5.00344 12.5 5.00344H15.4167C16.1058 5.00344 16.6667 5.56427 16.6667 6.25344V9.15177V9.15094Z" fill="#9B9B9B"/>
</g>
<defs>
<clipPath id="clip0_24530_73491">
<rect width="20" height="20" fill="white"/>
</clipPath>
</defs>
</svg>
