<svg width="20" height="20" viewBox="0 0 20 20" fill="none" xmlns="http://www.w3.org/2000/svg">
<g clip-path="url(#clip0_24530_77724)">
<path d="M6.48441 16.4453H1.75785C0.78856 16.4453 4.57764e-05 17.2338 4.57764e-05 18.2031V19.4141C4.57764e-05 19.7379 0.262116 20 0.585982 20H7.65628C7.98015 20 8.24222 19.7379 8.24222 19.4141V18.2031C8.24222 17.2338 7.4537 16.4453 6.48441 16.4453Z" fill="#1455AC"/>
<path d="M6.9724 12.7721L2.00053 7.8003C1.54292 7.34261 0.800926 7.34261 0.343271 7.8003C-0.114424 8.25792 -0.114424 8.99991 0.343271 9.45756L5.3151 14.4294C5.77279 14.887 6.5147 14.887 6.9724 14.4294C7.43002 13.9717 7.43002 13.2297 6.9724 12.7721Z" fill="#1455AC"/>
<path d="M14.4294 5.31506L9.45751 0.343271C8.99989 -0.114424 8.2579 -0.114424 7.80024 0.343271C7.34263 0.800887 7.34263 1.54288 7.80024 2.00053L12.772 6.97232C13.2298 7.43002 13.9717 7.43002 14.4294 6.97232C14.887 6.5147 14.887 5.77271 14.4294 5.31506Z" fill="#1455AC"/>
<path d="M6.97321 2.82953L2.83008 6.97266L7.80181 11.9444L11.9449 7.80126L6.97321 2.82953Z" fill="#1455AC"/>
<path d="M11.5303 9.87305L9.87305 11.5303L10.6237 12.4369L12.4369 10.6237L11.5303 9.87305Z" fill="#1455AC"/>
<path d="M19.2231 16.2384L13.3443 11.375L11.375 13.3442L16.2384 19.2231C17.033 20.1944 18.4925 20.2671 19.3798 19.3798C20.2671 18.4925 20.1943 17.0331 19.2231 16.2384Z" fill="#1455AC"/>
</g>
<defs>
<clipPath id="clip0_24530_77724">
<rect width="20" height="20" fill="white"/>
</clipPath>
</defs>
</svg>
