<svg width="20" height="20" viewBox="0 0 20 20" fill="none" xmlns="http://www.w3.org/2000/svg">
<path fill-rule="evenodd" clip-rule="evenodd" d="M17.2913 2.49935V18.3327C17.2913 18.5644 17.163 18.7768 16.958 18.8852C16.753 18.9935 16.5055 18.9793 16.3138 18.8485L14.2347 17.4293L12.2688 18.8402C12.033 19.0102 11.7113 18.9943 11.493 18.8027L9.99967 17.4968L8.50634 18.8027C8.28801 18.9943 7.96634 19.0102 7.73051 18.8402L5.76467 17.4293L3.68551 18.8485C3.49384 18.9793 3.24634 18.9935 3.04134 18.8852C2.83634 18.7768 2.70801 18.5644 2.70801 18.3327V2.49935C2.70801 1.69435 3.36051 1.04102 4.16634 1.04102H15.833C16.6388 1.04102 17.2913 1.69435 17.2913 2.49935ZM6.66634 8.95768H13.333C13.678 8.95768 13.958 8.67768 13.958 8.33268C13.958 7.98768 13.678 7.70768 13.333 7.70768H6.66634C6.32134 7.70768 6.04134 7.98768 6.04134 8.33268C6.04134 8.67768 6.32134 8.95768 6.66634 8.95768ZM6.66634 5.62435H13.333C13.678 5.62435 13.958 5.34435 13.958 4.99935C13.958 4.65435 13.678 4.37435 13.333 4.37435H6.66634C6.32134 4.37435 6.04134 4.65435 6.04134 4.99935C6.04134 5.34435 6.32134 5.62435 6.66634 5.62435ZM6.66634 12.291H9.99967C10.3447 12.291 10.6247 12.011 10.6247 11.666C10.6247 11.321 10.3447 11.041 9.99967 11.041H6.66634C6.32134 11.041 6.04134 11.321 6.04134 11.666C6.04134 12.011 6.32134 12.291 6.66634 12.291Z" fill="#9B9B9B"/>
</svg>
