<svg width="44" height="44" viewBox="0 0 44 44" fill="none" xmlns="http://www.w3.org/2000/svg">
<path d="M12.8571 30.5052H8.3991C8.20675 30.5052 8.02227 30.4288 7.88626 30.2928C7.75024 30.1568 7.67383 29.9723 7.67383 29.78C7.67383 29.5876 7.75024 29.4031 7.88626 29.2671C8.02227 29.1311 8.20675 29.0547 8.3991 29.0547H12.8571C13.0495 29.0547 13.234 29.1311 13.37 29.2671C13.506 29.4031 13.5824 29.5876 13.5824 29.78C13.5824 29.9723 13.506 30.1568 13.37 30.2928C13.234 30.4288 13.0495 30.5052 12.8571 30.5052Z" fill="#222222"/>
<path d="M30.9457 30.5052H21.2077C21.0153 30.5052 20.8309 30.4288 20.6948 30.2928C20.5588 30.1568 20.4824 29.9723 20.4824 29.78C20.4824 29.5876 20.5588 29.4031 20.6948 29.2671C20.8309 29.1311 21.0153 29.0547 21.2077 29.0547H30.9457C31.1381 29.0547 31.3226 29.1311 31.4586 29.2671C31.5946 29.4031 31.671 29.5876 31.671 29.78C31.671 29.9723 31.5946 30.1568 31.4586 30.2928C31.3226 30.4288 31.1381 30.5052 30.9457 30.5052Z" fill="#222222"/>
<path d="M42.7776 30.5055H39.2866C39.0942 30.5055 38.9098 30.4291 38.7738 30.293C38.6377 30.157 38.5613 29.9726 38.5613 29.7802C38.5613 29.5878 38.6377 29.4034 38.7738 29.2674C38.9098 29.1313 39.0942 29.0549 39.2866 29.0549H42.0668V23.4365C42.0676 23.0732 41.9799 22.7153 41.8114 22.3935C41.643 22.0717 41.3987 21.7958 41.0998 21.5894L38.8756 20.0857C38.7979 20.0305 38.7307 19.9617 38.6774 19.8826L33.3974 11.7257C33.1777 11.3816 32.8746 11.0987 32.5161 10.9034C32.1576 10.7081 31.7555 10.6067 31.3473 10.6088H11.1218C10.9294 10.6088 10.7449 10.5324 10.6089 10.3963C10.4729 10.2603 10.3965 10.0759 10.3965 9.8835C10.3965 9.69114 10.4729 9.50667 10.6089 9.37065C10.7449 9.23464 10.9294 9.15822 11.1218 9.15822H31.3473C31.9977 9.15606 32.6383 9.31797 33.2096 9.62898C33.7809 9.94 34.2646 10.3901 34.6158 10.9376L39.8136 18.9688L41.8928 20.3903C42.3914 20.7271 42.8002 21.1807 43.0834 21.7116C43.3665 22.2426 43.5155 22.8347 43.5174 23.4365V29.7802C43.5174 29.8767 43.4982 29.9722 43.4608 30.0611C43.4235 30.1501 43.3687 30.2307 43.2998 30.2982C43.2309 30.3658 43.1493 30.4189 43.0596 30.4545C42.9699 30.4901 42.874 30.5074 42.7776 30.5055Z" fill="#222222"/>
<path d="M17.0298 34.8418C16.0601 34.8418 15.1122 34.5543 14.3059 34.0156C13.4997 33.4768 12.8712 32.7111 12.5002 31.8152C12.1291 30.9194 12.032 29.9336 12.2212 28.9825C12.4103 28.0314 12.8773 27.1578 13.563 26.4721C14.2486 25.7865 15.1223 25.3195 16.0733 25.1303C17.0244 24.9412 18.0102 25.0383 18.9061 25.4093C19.8019 25.7804 20.5677 26.4088 21.1064 27.2151C21.6451 28.0214 21.9327 28.9693 21.9327 29.939C21.9327 31.2393 21.4161 32.4864 20.4967 33.4058C19.5772 34.3253 18.3301 34.8418 17.0298 34.8418ZM17.0298 26.4867C16.347 26.4867 15.6795 26.6892 15.1118 27.0685C14.5441 27.4478 14.1016 27.987 13.8403 28.6179C13.579 29.2487 13.5106 29.9428 13.6438 30.6125C13.777 31.2822 14.1058 31.8973 14.5887 32.3801C15.0715 32.863 15.6866 33.1918 16.3563 33.325C17.026 33.4582 17.7201 33.3898 18.351 33.1285C18.9818 32.8672 19.521 32.4247 19.9003 31.857C20.2796 31.2893 20.4821 30.6218 20.4821 29.939C20.4808 29.0238 20.1167 28.1464 19.4695 27.4993C18.8224 26.8521 17.945 26.488 17.0298 26.4867Z" fill="#222222"/>
<path d="M35.1079 34.8418C34.1382 34.8418 33.1903 34.5543 32.3841 34.0156C31.5778 33.4768 30.9494 32.7111 30.5783 31.8152C30.2072 30.9194 30.1101 29.9336 30.2993 28.9825C30.4885 28.0314 30.9554 27.1578 31.6411 26.4721C32.3268 25.7865 33.2004 25.3195 34.1514 25.1303C35.1025 24.9412 36.0883 25.0383 36.9842 25.4093C37.8801 25.7804 38.6458 26.4088 39.1845 27.2151C39.7232 28.0214 40.0108 28.9693 40.0108 29.939C40.0095 31.2389 39.4926 32.4852 38.5734 33.4044C37.6542 34.3236 36.4079 34.8406 35.1079 34.8418ZM35.1079 26.4867C34.4251 26.4867 33.7577 26.6892 33.1899 27.0685C32.6222 27.4478 32.1797 27.987 31.9184 28.6179C31.6571 29.2487 31.5888 29.9428 31.722 30.6125C31.8552 31.2822 32.184 31.8973 32.6668 32.3801C33.1496 32.863 33.7647 33.1918 34.4344 33.325C35.1041 33.4582 35.7983 33.3898 36.4291 33.1285C37.0599 32.8672 37.5991 32.4247 37.9784 31.857C38.3578 31.2893 38.5602 30.6218 38.5602 29.939C38.5577 29.0242 38.1932 28.1475 37.5463 27.5007C36.8994 26.8538 36.0228 26.4892 35.1079 26.4867Z" fill="#222222"/>
<path d="M39.2861 20.2114H27.5221C27.3298 20.2114 27.1453 20.135 27.0093 19.999C26.8733 19.863 26.7969 19.6785 26.7969 19.4861V9.88349C26.7969 9.69113 26.8733 9.50666 27.0093 9.37064C27.1453 9.23463 27.3298 9.15821 27.5221 9.15821H31.2259C31.9136 9.15662 32.5907 9.32806 33.1949 9.65674C33.799 9.98543 34.3108 10.4608 34.683 11.0391L39.8953 19.0945C39.9673 19.2036 40.0082 19.3303 40.0136 19.4609C40.0191 19.5916 39.9889 19.7212 39.9263 19.836C39.8637 19.9508 39.771 20.0463 39.6583 20.1125C39.5455 20.1786 39.4168 20.2128 39.2861 20.2114ZM28.2474 18.7609H37.9516L33.4646 11.8272C33.2236 11.4526 32.8923 11.1447 32.501 10.9317C32.1098 10.7188 31.6713 10.6077 31.2259 10.6088H28.2474V18.7609Z" fill="#222222"/>
<path d="M13.756 15.9027H6.17449C5.98214 15.9027 5.79766 15.8263 5.66165 15.6903C5.52563 15.5543 5.44922 15.3698 5.44922 15.1774C5.44922 14.9851 5.52563 14.8006 5.66165 14.6646C5.79766 14.5286 5.98214 14.4521 6.17449 14.4521H13.756C13.9484 14.4521 14.1329 14.5286 14.2689 14.6646C14.4049 14.8006 14.4813 14.9851 14.4813 15.1774C14.4813 15.3698 14.4049 15.5543 14.2689 15.6903C14.1329 15.8263 13.9484 15.9027 13.756 15.9027Z" fill="#222222"/>
<path d="M10.3426 21.1634H1.33465C1.14229 21.1634 0.957818 21.087 0.821803 20.951C0.685788 20.815 0.609375 20.6305 0.609375 20.4382C0.609375 20.2458 0.685788 20.0613 0.821803 19.9253C0.957818 19.7893 1.14229 19.7129 1.33465 19.7129H10.3426C10.5349 19.7129 10.7194 19.7893 10.8554 19.9253C10.9914 20.0613 11.0678 20.2458 11.0678 20.4382C11.0678 20.6305 10.9914 20.815 10.8554 20.951C10.7194 21.087 10.5349 21.1634 10.3426 21.1634Z" fill="#222222"/>
<path d="M9.51082 25.5638H4.10027C3.90792 25.5638 3.72344 25.4874 3.58743 25.3514C3.45141 25.2154 3.375 25.0309 3.375 24.8386C3.375 24.6462 3.45141 24.4617 3.58743 24.3257C3.72344 24.1897 3.90792 24.1133 4.10027 24.1133H9.51082C9.70318 24.1133 9.88766 24.1897 10.0237 24.3257C10.1597 24.4617 10.2361 24.6462 10.2361 24.8386C10.2361 25.0309 10.1597 25.2154 10.0237 25.3514C9.88766 25.4874 9.70318 25.5638 9.51082 25.5638Z" fill="#222222"/>
</svg>
