<svg width="44" height="44" viewBox="0 0 44 44" fill="none" xmlns="http://www.w3.org/2000/svg">
<g clip-path="url(#clip0_24530_58307)">
<path d="M23.4291 32.0114H3.92838C3.30346 32.0107 2.70434 31.7622 2.26246 31.3203C1.82058 30.8784 1.57203 30.2793 1.57135 29.6544V14.4722H37.8222V17.9951C37.8254 18.2014 37.9095 18.3981 38.0565 18.5428C38.2035 18.6876 38.4016 18.7687 38.6078 18.7687C38.8141 18.7687 39.0122 18.6875 39.1591 18.5428C39.3061 18.3981 39.3903 18.2013 39.3935 17.995V8.92838C39.3923 7.88688 38.978 6.88838 38.2415 6.15193C37.5051 5.41548 36.5066 5.00121 35.4651 5H3.92838C2.88688 5.00122 1.8884 5.4155 1.15195 6.15195C0.415499 6.8884 0.00122479 7.88688 0 8.92838V29.6544C0.00122063 30.6959 0.415494 31.6944 1.15194 32.4308C1.88839 33.1673 2.88688 33.5816 3.92838 33.5828H23.4291C23.6349 33.579 23.8311 33.4945 23.9753 33.3476C24.1196 33.2007 24.2004 33.003 24.2004 32.7971C24.2004 32.5912 24.1196 32.3935 23.9753 32.2466C23.8311 32.0997 23.6349 32.0152 23.4291 32.0114ZM1.57135 8.92838C1.57203 8.30346 1.82058 7.70434 2.26246 7.26246C2.70434 6.82059 3.30346 6.57204 3.92838 6.57136H35.4651C36.09 6.57204 36.6891 6.82059 37.131 7.26246C37.5729 7.70434 37.8214 8.30346 37.8221 8.92838V10.0992H1.57135V8.92838ZM1.57135 11.6705H37.8222V12.9009H1.57135V11.6705Z" fill="#222222"/>
<path d="M5.68845 26.9062C5.48273 26.9103 5.28679 26.9948 5.14273 27.1417C4.99866 27.2886 4.91796 27.4862 4.91797 27.6919C4.91797 27.8977 4.99868 28.0953 5.14276 28.2422C5.28683 28.3891 5.48278 28.4736 5.6885 28.4776H11.291C11.4967 28.4736 11.6926 28.389 11.8367 28.2421C11.9808 28.0952 12.0615 27.8977 12.0615 27.6919C12.0615 27.4861 11.9808 27.2886 11.8367 27.1417C11.6926 26.9948 11.4967 26.9103 11.2909 26.9062H5.68845Z" fill="#222222"/>
<path d="M43.675 23.0763C43.5805 22.6269 43.5335 22.0398 43.0129 21.889L34.4648 19.138C34.3081 19.0881 34.1397 19.0881 33.983 19.138L25.4357 21.889C24.9164 22.0412 24.8692 22.6242 24.7728 23.0748C23.5145 29.3667 25.9682 35.0011 31.0229 37.4291L33.884 38.8033C33.9901 38.8543 34.1062 38.8808 34.2239 38.8808C34.3416 38.8808 34.4578 38.8543 34.5638 38.8033L37.4257 37.4291C42.4804 35.0015 44.9333 29.3671 43.675 23.0763ZM36.7459 36.0127L34.2239 37.2235L31.7027 36.0127C27.2759 33.9001 25.1631 28.8205 26.3418 23.2486L34.2239 20.7113L42.1067 23.2482C43.283 28.8222 41.1725 33.9001 36.7459 36.0127Z" fill="#222222"/>
<path d="M38.0248 26.3036L33.8625 30.0126L32.0279 28.1784C31.8797 28.0357 31.6813 27.9568 31.4755 27.9588C31.2697 27.9607 31.0729 28.0434 30.9274 28.1889C30.7819 28.3344 30.6992 28.5312 30.6973 28.737C30.6954 28.9428 30.7742 29.1412 30.917 29.2895L33.2755 31.648C33.4173 31.7898 33.6079 31.8721 33.8083 31.8779C34.0088 31.8836 34.2038 31.8125 34.3535 31.6791L39.0699 27.4768C39.2205 27.3369 39.3104 27.1436 39.3201 26.9382C39.3299 26.7329 39.2587 26.5319 39.122 26.3783C38.9852 26.2248 38.7938 26.131 38.5887 26.1171C38.3836 26.1031 38.1811 26.1701 38.0248 26.3036Z" fill="#222222"/>
</g>
<defs>
<clipPath id="clip0_24530_58307">
<rect width="44" height="44" fill="white"/>
</clipPath>
</defs>
</svg>
