<svg width="44" height="44" viewBox="0 0 44 44" fill="none" xmlns="http://www.w3.org/2000/svg">
<g clip-path="url(#clip0_24530_58318)">
<path d="M43.6635 11.0144L33.1422 4.95148C33.119 4.93602 33.0949 4.92227 33.07 4.91023L26.4743 1.11008C26.262 0.988047 26.0008 0.988047 25.7885 1.11008L8.60274 11.0144C8.38962 11.1373 8.25899 11.3641 8.25899 11.6099V25.0712C6.94243 25.1734 5.65509 25.5696 4.4786 26.2494C2.40407 27.4465 0.920792 29.3801 0.302042 31.6927C-0.318427 34.0052 -0.00045839 36.4218 1.19665 38.4955C2.39462 40.57 4.32821 42.0533 6.64079 42.672C7.41337 42.8791 8.19712 42.9814 8.97571 42.9814C10.5286 42.9814 12.0617 42.5741 13.4427 41.7766C15.2904 40.7101 16.6697 39.0584 17.3873 37.0749L25.7885 41.9166C25.8951 41.9777 26.0128 42.0086 26.1314 42.0086C26.25 42.0086 26.3686 41.9777 26.4743 41.9166L43.6627 32.0115C43.8758 31.8886 44.0064 31.6617 44.0064 31.4159V11.6099C44.0073 11.3641 43.8758 11.1373 43.6635 11.0144ZM11.2814 25.353C10.7349 25.207 10.184 25.1141 9.63228 25.0712V12.7993L14.8822 15.8234V22.1089C14.8822 22.3547 15.0137 22.5816 15.2259 22.7045L19.1653 24.9723C19.271 25.0334 19.3896 25.0643 19.5082 25.0643C19.6268 25.0643 19.7454 25.0334 19.852 24.9723C20.0642 24.8495 20.1949 24.6226 20.1949 24.3777V18.8845L25.5221 21.9568C25.4731 22.0513 25.4448 22.1588 25.4448 22.273V40.038C25.4448 40.0724 25.4482 40.1051 25.4525 40.1377L17.7645 35.7068C18.6471 31.1349 15.8473 26.5768 11.2814 25.353ZM35.3113 7.78742L19.1653 17.0893C18.972 17.201 18.8474 17.3987 18.8259 17.6178C18.8233 17.6393 18.8224 17.6599 18.8216 17.6814V17.6848V23.1883L16.2563 21.711V15.8329L32.7658 6.31961L35.3113 7.78742ZM26.1314 20.7219L20.8746 17.6909L36.6871 8.57977L41.9431 11.6082L26.1314 20.7219ZM26.1314 2.49797L31.3899 5.52813L15.5783 14.6384L10.3206 11.6099L26.1314 2.49797ZM12.7561 40.5872C10.9995 41.6013 8.95423 41.8702 6.99657 41.3452C5.03806 40.8209 3.40095 39.5654 2.38689 37.8088C1.37282 36.0523 1.10384 34.0061 1.62892 32.0476C2.15314 30.0891 3.40868 28.4528 5.16524 27.4388C6.3254 26.7693 7.61103 26.4247 8.91556 26.4187C8.92587 26.4195 8.93532 26.4204 8.94563 26.4204C8.95681 26.4204 8.96712 26.4195 8.97829 26.4187C9.62798 26.4213 10.282 26.5072 10.9265 26.6791C14.969 27.7627 17.377 31.9333 16.295 35.9766C15.7691 37.936 14.5127 39.5731 12.7561 40.5872ZM26.8103 40.1377C26.8155 40.1051 26.8181 40.0716 26.8181 40.038V22.2722C26.8181 22.1579 26.7897 22.0505 26.7407 21.9559L42.6331 12.7967V31.0198L26.8103 40.1377ZM13.7977 34.9342C13.7977 36.793 12.2852 38.3055 10.4263 38.3055H8.93274C8.55376 38.3055 8.2461 37.9979 8.2461 37.6189C8.2461 37.2399 8.55376 36.9323 8.93274 36.9323H10.4263C11.5281 36.9323 12.4235 36.0359 12.4235 34.9351C12.4235 33.8325 11.5272 32.9353 10.4263 32.9353H6.4672L7.13579 33.6039C7.40392 33.872 7.40392 34.3069 7.13579 34.575C7.00173 34.7091 6.82556 34.7761 6.65024 34.7761C6.47493 34.7761 6.29876 34.7091 6.1647 34.575L4.32306 32.7334C4.19415 32.6045 4.12196 32.43 4.12196 32.2478C4.12196 32.0656 4.19415 31.8912 4.32306 31.7623L6.1647 29.9206C6.43282 29.6525 6.86767 29.6525 7.13579 29.9206C7.40392 30.1888 7.40392 30.6236 7.13579 30.8917L6.4672 31.5603H10.4263C12.286 31.5603 13.7977 33.0737 13.7977 34.9342Z" fill="#222222"/>
</g>
<defs>
<clipPath id="clip0_24530_58318">
<rect width="44" height="44" fill="white"/>
</clipPath>
</defs>
</svg>
