<svg width="20" height="20" viewBox="0 0 20 20" fill="none" xmlns="http://www.w3.org/2000/svg">
<path d="M11.666 7.5L14.166 5L16.666 7.5" stroke="#D9D9D9" stroke-width="2" stroke-linecap="round" stroke-linejoin="round"/>
<path d="M7.91602 4.16797H4.58268C4.35256 4.16797 4.16602 4.35452 4.16602 4.58464V7.91797C4.16602 8.14809 4.35256 8.33464 4.58268 8.33464H7.91602C8.14613 8.33464 8.33268 8.14809 8.33268 7.91797V4.58464C8.33268 4.35452 8.14613 4.16797 7.91602 4.16797Z" stroke="#D9D9D9" stroke-width="2" stroke-linecap="round" stroke-linejoin="round"/>
<path d="M7.91602 11.668H4.58268C4.35256 11.668 4.16602 11.8545 4.16602 12.0846V15.418C4.16602 15.6481 4.35256 15.8346 4.58268 15.8346H7.91602C8.14613 15.8346 8.33268 15.6481 8.33268 15.418V12.0846C8.33268 11.8545 8.14613 11.668 7.91602 11.668Z" stroke="#D9D9D9" stroke-width="2" stroke-linecap="round" stroke-linejoin="round"/>
<path d="M14.166 5V15" stroke="#D9D9D9" stroke-width="2" stroke-linecap="round" stroke-linejoin="round"/>
</svg>
