<svg width="20" height="20" viewBox="0 0 20 20" fill="none" xmlns="http://www.w3.org/2000/svg">
<path d="M4.96893 16.4441C4.24186 16.4441 3.65036 15.8526 3.65036 15.1256C3.65036 14.3985 4.24186 13.807 4.96893 13.807H10.0151C11.3237 13.807 12.3883 12.7424 12.3883 11.4338C12.3883 10.1251 11.3237 9.06055 10.0151 9.06055H6.45636V10.1152H10.0151C10.7422 10.1152 11.3337 10.7067 11.3337 11.4338C11.3337 12.1609 10.7422 12.7523 10.0151 12.7523H4.96893C3.66031 12.7523 2.59567 13.817 2.59567 15.1256C2.59567 16.4342 3.66031 17.4988 4.96893 17.4988H13.5441V16.4441H4.96893Z" fill="#9B9B9B"/>
<path d="M5.8856 4.04334C4.76791 2.92566 2.95581 2.92566 1.83816 4.04334C0.720471 5.16103 0.720471 6.97313 1.83816 8.09078L3.86189 10.1145L5.8856 8.09078C7.00328 6.97309 7.00328 5.161 5.8856 4.04334ZM3.84495 6.93305C3.35385 6.93305 2.95574 6.53494 2.95574 6.04384C2.95574 5.55274 3.35385 5.1546 3.84495 5.1546C4.33605 5.1546 4.73419 5.55271 4.73419 6.04384C4.73419 6.53494 4.33608 6.93305 3.84495 6.93305Z" fill="#9B9B9B"/>
<path d="M18.162 11.4281C17.0443 10.3104 15.2322 10.3104 14.1145 11.4281C12.9968 12.5458 12.9968 14.3579 14.1145 15.4755L16.1383 17.4993L18.162 15.4755C19.2797 14.3579 19.2797 12.5458 18.162 11.4281ZM16.1213 14.3178C15.6302 14.3178 15.2321 13.9197 15.2321 13.4286C15.2321 12.9375 15.6302 12.5394 16.1213 12.5394C16.6124 12.5394 17.0106 12.9375 17.0106 13.4286C17.0106 13.9197 16.6124 14.3178 16.1213 14.3178Z" fill="#9B9B9B"/>
</svg>
