<svg width="20" height="20" viewBox="0 0 20 20" fill="none" xmlns="http://www.w3.org/2000/svg">
<path d="M5.88477 1.23242C6.07293 1.23264 6.25925 1.27061 6.43262 1.34375L15.5322 5.13281H16.6162L16.7998 5.1416C16.9821 5.15938 17.1612 5.20323 17.3311 5.27344C17.5577 5.36712 17.7631 5.50532 17.9365 5.67871C18.1099 5.85211 18.2481 6.05757 18.3418 6.28418C18.4355 6.51077 18.4837 6.75384 18.4834 6.99902V8.90723C18.6903 8.94468 18.8821 9.04472 19.0303 9.19727C19.2126 9.38506 19.315 9.63669 19.3164 9.89844V14C19.315 14.2616 19.2124 14.5125 19.0303 14.7002C18.8821 14.8528 18.6903 14.9528 18.4834 14.9902V16.8984L18.4746 17.082C18.4569 17.2643 18.412 17.4434 18.3418 17.6133C18.2481 17.8399 18.1099 18.0463 17.9365 18.2197C17.7632 18.393 17.5575 18.5304 17.3311 18.624C17.1612 18.6942 16.9821 18.7391 16.7998 18.7568L16.6162 18.7656H2.5498C2.30457 18.766 2.06159 18.7177 1.83496 18.624C1.60848 18.5304 1.40282 18.393 1.22949 18.2197C1.05606 18.0463 0.917912 17.8399 0.824219 17.6133C0.73063 17.3867 0.682259 17.1436 0.682617 16.8984V6.99902C0.682289 6.75384 0.730554 6.51077 0.824219 6.28418C0.917911 6.05757 1.0561 5.85211 1.22949 5.67871C1.40291 5.50531 1.60833 5.36712 1.83496 5.27344C2.06159 5.17977 2.30458 5.13247 2.5498 5.13281H3.36426L4.56836 2.12695L4.62695 1.99902C4.69143 1.87387 4.77421 1.75823 4.87305 1.65723C5.00477 1.52268 5.16233 1.41569 5.33594 1.34277C5.50961 1.26986 5.69641 1.23223 5.88477 1.23242ZM2.40723 6.28027C2.26641 6.30909 2.13633 6.37932 2.0332 6.48242C1.89577 6.61986 1.81768 6.80564 1.81641 7V16.8984L1.83105 17.043C1.85936 17.1836 1.92835 17.314 2.03125 17.417C2.16876 17.5545 2.35534 17.6326 2.5498 17.6328H16.6162L16.7598 17.6182C16.9008 17.5899 17.0316 17.5202 17.1348 17.417C17.272 17.2796 17.3493 17.0936 17.3496 16.8994V15.0156H13.75C12.9367 15.0156 12.1562 14.6923 11.5811 14.1172C11.0061 13.5421 10.6827 12.7624 10.6826 11.9492C10.6826 11.1359 11.0059 10.3554 11.5811 9.78027C12.1562 9.2052 12.9367 8.88281 13.75 8.88281H17.3496V7C17.3483 6.80564 17.2702 6.61986 17.1328 6.48242C16.9954 6.34503 16.8096 6.2669 16.6152 6.26562H2.55078L2.40723 6.28027ZM13.749 10.0156C13.2365 10.0158 12.7452 10.2197 12.3828 10.582C12.0202 10.9446 11.8164 11.4365 11.8164 11.9492C11.8165 12.4619 12.0203 12.9539 12.3828 13.3164C12.7454 13.6788 13.2374 13.8828 13.75 13.8828H18.1826V10.0469L13.749 10.0156ZM5.99316 2.3877C5.92214 2.36081 5.84346 2.36072 5.77246 2.3877C5.73855 2.40163 5.70814 2.42289 5.68262 2.44922C5.65691 2.47585 5.63682 2.50823 5.62402 2.54297L5.62207 2.54688L4.58789 5.13281H5.21387L5.71777 3.82812H5.71875C5.77212 3.69173 5.87579 3.58084 6.00879 3.51953C6.14107 3.45864 6.29199 3.45088 6.42969 3.49805L11.3428 5.13281H12.584L5.99316 2.3877ZM6.43359 5.13281H7.75293L6.58008 4.74512L6.43359 5.13281Z" fill="#9B9B9B" stroke="#9B9B9B" stroke-width="0.3"/>
<path d="M13.75 10.6992C13.5028 10.6992 13.2611 10.7725 13.0555 10.9099C12.85 11.0472 12.6898 11.2425 12.5952 11.4709C12.5005 11.6993 12.4758 11.9506 12.524 12.1931C12.5723 12.4356 12.6913 12.6583 12.8661 12.8331C13.0409 13.0079 13.2637 13.127 13.5061 13.1752C13.7486 13.2234 13.9999 13.1987 14.2284 13.1041C14.4568 13.0095 14.652 12.8492 14.7893 12.6437C14.9267 12.4381 15 12.1964 15 11.9492C15 11.6177 14.8683 11.2998 14.6339 11.0653C14.3995 10.8309 14.0815 10.6992 13.75 10.6992ZM13.75 12.3659C13.6676 12.3659 13.587 12.3414 13.5185 12.2957C13.45 12.2499 13.3966 12.1848 13.3651 12.1087C13.3335 12.0325 13.3253 11.9488 13.3413 11.8679C13.3574 11.7871 13.3971 11.7129 13.4554 11.6546C13.5136 11.5963 13.5879 11.5566 13.6687 11.5406C13.7495 11.5245 13.8333 11.5327 13.9095 11.5643C13.9856 11.5958 14.0507 11.6492 14.0964 11.7177C14.1422 11.7863 14.1667 11.8668 14.1667 11.9492C14.1667 12.0597 14.1228 12.1657 14.0446 12.2438C13.9665 12.322 13.8605 12.3659 13.75 12.3659Z" fill="#9B9B9B"/>
<path d="M5.83301 8.19987C5.83301 8.31038 5.78911 8.41636 5.71097 8.4945C5.63283 8.57264 5.52685 8.61654 5.41634 8.61654H3.74967C3.63917 8.61654 3.53319 8.57264 3.45505 8.4945C3.37691 8.41636 3.33301 8.31038 3.33301 8.19987C3.33301 8.08936 3.37691 7.98338 3.45505 7.90524C3.53319 7.8271 3.63917 7.7832 3.74967 7.7832H5.41634C5.52685 7.7832 5.63283 7.8271 5.71097 7.90524C5.78911 7.98338 5.83301 8.08936 5.83301 8.19987Z" fill="#9B9B9B"/>
<path d="M7.49967 9.86589C7.49967 9.97639 7.45578 10.0824 7.37764 10.1605C7.2995 10.2387 7.19351 10.2826 7.08301 10.2826H3.74967C3.63917 10.2826 3.53319 10.2387 3.45505 10.1605C3.37691 10.0824 3.33301 9.97639 3.33301 9.86589C3.33301 9.75538 3.37691 9.6494 3.45505 9.57126C3.53319 9.49312 3.63917 9.44922 3.74967 9.44922H7.08301C7.19351 9.44922 7.2995 9.49312 7.37764 9.57126C7.45578 9.6494 7.49967 9.75538 7.49967 9.86589Z" fill="#9B9B9B"/>
</svg>
