<svg width="70" height="70" viewBox="0 0 70 70" fill="none" xmlns="http://www.w3.org/2000/svg">
<g clip-path="url(#clip0_13618_7102)">
<path d="M39.5296 40.8333H36.4583V31.8063C43.9221 30.4325 49.5833 23.905 49.5833 16.0417C49.5833 7.18083 42.4025 0 33.5417 0C24.6808 0 17.5 7.18083 17.5 16.0417C17.5 23.905 23.1613 30.4325 30.625 31.8063V40.8333L26.635 36.8433C24.1821 34.3904 20.1921 34.3846 17.7333 36.8433L12.2179 43.75H0V67.0833H12.6525L21.4025 70H42.9829C42.9829 70 46.6667 50.1083 46.6667 47.6642C46.6667 43.8346 43.5313 40.8333 39.5296 40.8333ZM24.7129 20.6092H29.0646C29.295 21.385 30.0183 21.9538 30.8671 21.9538H36.5779C37.4267 21.9538 38.1208 21.2625 38.1208 20.4108C38.1208 19.6788 37.5988 19.0429 36.8813 18.8971L29.3825 17.395C26.6613 16.8496 24.6896 14.4433 24.6896 11.6696C24.6896 8.44958 27.3087 5.83042 30.5258 5.83042H31.4533V2.91375H35.6533V5.83042H36.2396C39.4654 5.83042 42.1225 8.31542 42.3938 11.4713H38.0421C37.8117 10.6954 37.0883 10.1267 36.2396 10.1267H30.5258C29.6771 10.1267 28.9858 10.8179 28.9858 11.6667C28.9858 12.3988 29.5079 13.0346 30.2254 13.1775L37.7271 14.6796C40.4483 15.2221 42.42 17.6313 42.42 20.405C42.42 23.625 39.8008 26.2442 36.5808 26.2442H35.6563V29.1608H31.4563V26.2442H30.87C27.6442 26.2442 24.9871 23.7592 24.7158 20.6033L24.7129 20.6092ZM65.835 36.5108L61.25 31.9258V49.5862H55.4167V31.9258L50.7558 36.5867L46.6317 32.4625L53.9379 25.1563C56.3588 22.7296 60.3079 22.7296 62.7288 25.1563L69.9592 32.3867L65.835 36.5108Z" fill="#DBDBDB"/>
</g>
<defs>
<clipPath id="clip0_13618_7102">
<rect width="70" height="70" fill="white"/>
</clipPath>
</defs>
</svg>
