<svg width="520" height="206" viewBox="0 0 520 206" fill="none" xmlns="http://www.w3.org/2000/svg">
<g opacity="0.3" clip-path="url(#clip0_26823_230994)">
<path d="M135.672 106.459C135.229 108.308 133.17 117.252 134.086 128.738C134.303 131.459 134.837 134.417 135.872 137.797C137.376 142.707 142.866 158.07 159.129 170.284C160.209 171.096 161.304 171.867 162.414 172.603H308.041C312.904 168.985 316.34 165.384 317.763 163.875C320.115 161.38 321.603 159.435 322.698 157.738C326.534 151.796 329.184 147.374 329.716 146.354C335.241 135.759 353.23 126.495 367.337 114.183C374.599 107.845 383.573 100.014 389.411 87.5391C390.918 83.2523 392.66 77.1455 393.452 69.685C394.091 63.6708 394.998 54.2027 391.431 42.5604C387.791 30.674 381.418 22.8235 379.462 20.5174C376.217 16.691 372.317 12.092 365.472 8.15685C358.846 4.34827 356.897 5.43565 338.113 -0.907543C328.449 -4.17097 324.894 -5.83254 323.035 -6.74446C318.935 -8.75482 315.847 -10.8212 308.653 -15.3862C299.462 -21.2188 293.291 -25.9126 291.779 -26.8155C277.163 -35.5399 251.2 -39.9429 237.731 -40.2616C195.967 -41.2495 124.439 -17.3053 118.196 22.0462C113.873 49.294 140.425 86.6143 135.672 106.459Z" fill="#FDEBD4"/>
<path d="M370.425 -11.5686C368.038 -27.7707 347.221 -39.8633 329.711 -44.2539C318.718 -47.0104 301.83 -47.7237 300.838 -37.5255C300.678 -35.8802 300.993 -34.231 301.693 -32.6927C308.316 -18.123 326.454 -9.4176 343.166 -3.52249C355.978 0.997089 372.941 5.50311 370.425 -11.5686Z" fill="#FDEBD4"/>
<path d="M206.515 31.5582C206.962 29.5882 204.844 26.8603 202.348 25.7182C199.208 24.2818 196.291 25.7291 195.917 25.9227C195.802 25.1146 195.402 23.0994 193.744 21.387C193.291 20.9186 190.802 18.3478 187.482 19.0843C185.136 19.6049 183.265 21.5807 182.669 24.1195C182.518 23.6927 182.112 22.7428 181.131 22.0874C180.866 21.9101 180.45 21.6177 179.896 21.5877C178.631 21.5193 177.648 22.7695 177.338 23.1925C177.175 16.3004 171.761 10.7942 165.374 10.5313C159.657 10.2959 154.297 14.3102 152.761 20.2356C152.221 20.005 151.425 19.7153 150.432 19.5342C149.078 19.2872 145.669 18.6654 143.372 20.7627C141.373 22.5885 141.393 25.3998 141.414 26.0491C140.757 25.6122 139.279 24.7704 137.386 24.8958C134.496 25.0874 132.718 27.3951 131.941 28.4047C131.573 28.8825 129.628 31.408 129.851 33.0554C130.935 41.0561 184.31 36.7991 191.947 36.19C197.305 35.7628 205.737 34.9781 206.515 31.5582Z" fill="white"/>
<path d="M324.008 42.0852C323.67 40.597 325.27 38.5364 327.155 37.6737C329.527 36.5887 331.731 37.6819 332.013 37.8282C332.1 37.2178 332.402 35.6955 333.654 34.4019C333.997 34.0481 335.877 32.1061 338.385 32.6625C340.157 33.0558 341.571 34.5483 342.021 36.466C342.135 36.1436 342.441 35.4261 343.182 34.9311C343.383 34.7972 343.697 34.5762 344.115 34.5536C345.071 34.5019 345.814 35.4463 346.047 35.7658C346.17 30.5597 350.261 26.4003 355.085 26.2018C359.404 26.0239 363.452 29.0562 364.612 33.5323C365.021 33.3581 365.622 33.1392 366.372 33.0024C367.394 32.8158 369.97 32.3462 371.705 33.9304C373.215 35.3096 373.2 37.4332 373.184 37.9237C373.68 37.5936 374.797 36.9578 376.227 37.0525C378.41 37.1972 379.753 38.9404 380.34 39.7031C380.618 40.0639 382.087 41.9717 381.919 43.2161C381.1 49.2597 340.781 46.0441 335.012 45.584C330.964 45.2612 324.595 44.6685 324.008 42.0852Z" fill="white"/>
<path d="M339.456 174.357H351.081C352.343 169.636 353.264 164.72 355.473 160.802C359.862 153.015 369.769 147.092 368.062 137.622C367.525 134.638 365.823 131.583 365.407 128.613C364.583 122.726 368.836 118.175 370.662 112.932C374.773 101.135 369.102 85.7316 371.993 74.1875C366.319 79.645 360.645 85.1025 354.971 90.5599C350.839 94.5338 346.546 98.9363 347.262 104.701C347.651 107.837 349.509 111.049 350.562 114.231C352.306 119.506 351.773 124.742 349.066 128.907C346.483 132.882 342.011 135.88 340.14 140.177C337.682 145.822 340.034 152.804 340.657 159.292C341.157 164.505 340.523 169.488 339.456 174.357Z" fill="#417971"/>
<path d="M339.456 174.357H351.081C352.343 169.636 353.264 164.72 355.473 160.802C359.862 153.015 369.769 147.092 368.062 137.622C367.525 134.638 365.823 131.583 365.407 128.613C364.583 122.726 368.836 118.175 370.662 112.932C374.773 101.135 369.102 85.7316 371.993 74.1875C366.319 79.645 360.645 85.1025 354.971 90.5599C350.839 94.5338 346.546 98.9363 347.262 104.701C347.651 107.837 349.509 111.049 350.562 114.231C352.306 119.506 351.773 124.742 349.066 128.907C346.483 132.882 342.011 135.88 340.14 140.177C337.682 145.822 340.034 152.804 340.657 159.292C341.157 164.505 340.523 169.488 339.456 174.357Z" fill="#7E9C61"/>
<path d="M340.054 171.682C340.037 171.682 340.02 171.68 340.003 171.675C339.896 171.647 339.833 171.537 339.861 171.43C339.979 170.979 340.095 170.516 340.207 170.069C340.509 168.868 340.821 167.626 341.229 166.395C341.27 166.272 341.291 166.122 341.314 165.963C341.337 165.801 341.36 165.634 341.408 165.482C341.421 165.392 341.475 165.31 341.531 165.224C341.551 165.195 341.582 165.149 341.592 165.126C341.593 165.118 341.594 165.11 341.596 165.102C341.868 163.956 342.239 162.854 342.599 161.788C342.861 161.011 343.132 160.208 343.366 159.385C343.367 159.382 343.368 159.379 343.369 159.376C343.422 159.215 343.499 159.086 343.573 158.962C343.639 158.852 343.701 158.747 343.741 158.628C345.64 153.062 348.083 148.095 350.669 142.838C350.999 142.168 351.329 141.496 351.659 140.821C351.686 140.769 351.686 140.736 351.686 140.676C351.686 140.597 351.686 140.488 351.753 140.352C354.673 134.132 356.584 127.203 357.595 119.172C357.824 117.061 357.945 114.939 358.063 112.887C358.231 109.948 358.404 106.91 358.898 103.818C359.611 99.827 360.471 96.4566 361.605 93.2076C363.984 86.3984 367.425 79.9585 371.834 74.0664C371.9 73.9778 372.025 73.96 372.113 74.0267C372.201 74.0934 372.219 74.2192 372.153 74.3078C367.769 80.1669 364.347 86.5705 361.982 93.3407C360.854 96.569 360 99.9195 359.292 103.885C358.802 106.953 358.629 109.982 358.461 112.91C358.344 114.967 358.222 117.094 357.991 119.219C356.975 127.296 355.052 134.265 352.112 140.528C352.085 140.583 352.085 140.616 352.085 140.676C352.085 140.755 352.085 140.864 352.017 141C351.687 141.674 351.357 142.346 351.027 143.016C348.447 148.262 346.01 153.217 344.119 158.756C344.066 158.916 343.99 159.044 343.915 159.169C343.85 159.278 343.788 159.382 343.749 159.499C343.512 160.331 343.24 161.137 342.977 161.917C342.606 163.018 342.255 164.057 341.988 165.179C341.978 165.274 341.922 165.358 341.863 165.447C341.844 165.476 341.813 165.523 341.803 165.546C341.801 165.56 341.798 165.573 341.794 165.586C341.753 165.71 341.732 165.86 341.709 166.019C341.685 166.189 341.66 166.365 341.608 166.522C341.204 167.739 340.894 168.974 340.594 170.168C340.482 170.616 340.366 171.079 340.247 171.532C340.223 171.622 340.142 171.682 340.054 171.682ZM341.8 165.552C341.8 165.552 341.8 165.552 341.8 165.552V165.552Z" fill="#2B2B2B"/>
<path d="M345.574 174.356C347.683 171.161 349.605 167.875 351.209 164.443C352.97 160.673 354.385 156.676 357.547 153.648C363.825 147.636 376.304 146.096 380.622 138.979C383.119 134.865 382.423 129.512 384.437 125.179C385.642 122.589 387.777 120.446 389.471 118.088C392.693 113.605 395.081 108.444 395.899 103.172C393.038 105.563 393.94 106.557 390.629 108.6C385.851 111.549 381.073 114.499 376.295 117.448C363.661 125.246 350.553 133.614 346.675 146.339C345.281 150.914 345.154 155.877 344.453 160.666C343.76 165.406 342.494 169.989 340.685 174.356L345.574 174.356Z" fill="#708A54"/>
<path d="M358.886 174.357C362.241 173.374 365.264 172.066 367.336 169.792C370.574 166.239 370.917 160.852 373.724 156.992C375.403 154.683 377.908 152.995 380.023 151.009C384.043 147.235 387.377 142.635 389.19 137.62C385.924 139.412 386.618 140.561 382.977 141.924C377.724 143.892 372.471 145.859 367.217 147.826C353.326 153.028 338.859 158.696 332.615 170.431C331.944 171.691 331.378 173.008 330.871 174.357L358.886 174.357Z" fill="#7E9C61"/>
<path d="M347.315 168.585C347.31 168.585 347.304 168.585 347.299 168.584C347.189 168.576 347.107 168.479 347.116 168.368C347.569 162.625 348.863 157.038 350.962 151.763C353.227 146.073 355.944 141.964 357.362 140.021C359.554 137.017 361.799 134.889 363.602 133.18C364.436 132.39 365.156 131.707 365.729 131.073C370.001 126.342 375.275 122.573 380.375 118.927C384.776 115.78 389.328 112.527 393.216 108.669C393.295 108.591 393.421 108.592 393.499 108.671C393.576 108.75 393.575 108.877 393.497 108.955C389.586 112.835 385.021 116.099 380.606 119.254C375.523 122.888 370.268 126.645 366.025 131.343C365.441 131.989 364.716 132.676 363.876 133.472C362.085 135.17 359.855 137.284 357.684 140.259C356.277 142.186 353.582 146.263 351.333 151.912C349.249 157.15 347.964 162.697 347.514 168.4C347.506 168.505 347.418 168.585 347.315 168.585Z" fill="#2B2B2B"/>
<path d="M333.079 172.396C332.977 172.396 332.89 172.319 332.88 172.215C332.87 172.104 332.95 172.006 333.06 171.996C340.051 171.311 347.14 168.59 354.129 163.909C356.747 162.155 359.274 160.176 361.718 158.262C363.813 156.622 365.979 154.926 368.197 153.375C372.968 150.039 378.129 147.262 383.536 145.122C383.639 145.082 383.755 145.133 383.795 145.236C383.836 145.339 383.785 145.456 383.682 145.496C378.304 147.625 373.17 150.386 368.424 153.705C366.215 155.249 364.054 156.942 361.963 158.579C359.514 160.497 356.98 162.481 354.35 164.243C347.306 168.962 340.156 171.704 333.098 172.395C333.092 172.396 333.085 172.396 333.079 172.396Z" fill="#2B2B2B"/>
<path d="M141.104 118.398C142.931 123.64 147.183 128.192 146.359 134.079C145.943 137.049 144.241 140.104 143.704 143.087C141.997 152.558 151.904 158.48 156.294 166.267C156.589 166.791 156.861 167.334 157.114 167.89H170.94C170.954 166.855 171.008 165.811 171.11 164.758C171.732 158.27 174.084 151.288 171.626 145.643C169.755 141.345 165.283 138.347 162.7 134.372C159.993 130.207 159.46 124.971 161.204 119.697C162.257 116.515 164.115 113.303 164.504 110.167C165.22 104.402 160.927 99.9997 156.795 96.0258C151.121 90.5683 145.447 85.1108 139.773 79.6533C142.664 91.1974 136.994 106.601 141.104 118.398Z" fill="#417971"/>
<path d="M141.104 118.398C142.931 123.64 147.183 128.192 146.359 134.079C145.943 137.049 144.241 140.104 143.704 143.087C141.997 152.558 151.904 158.48 156.294 166.267C156.589 166.791 156.861 167.334 157.114 167.89H170.94C170.954 166.855 171.008 165.811 171.11 164.758C171.732 158.27 174.084 151.288 171.626 145.643C169.755 141.345 165.283 138.347 162.7 134.372C159.993 130.207 159.46 124.971 161.204 119.697C162.257 116.515 164.115 113.303 164.504 110.167C165.22 104.402 160.927 99.9997 156.795 96.0258C151.121 90.5683 145.447 85.1108 139.773 79.6533C142.664 91.1974 136.994 106.601 141.104 118.398Z" fill="#7E9C61"/>
<path d="M168.752 166.847C168.668 166.847 168.59 166.793 168.562 166.709C168.494 166.496 168.43 166.268 168.369 166.048C168.28 165.73 168.189 165.402 168.077 165.102C168.075 165.097 168.073 165.092 168.072 165.087C167.985 164.782 167.831 164.499 167.682 164.225C167.622 164.114 167.56 164 167.504 163.887C167.5 163.879 167.497 163.872 167.494 163.864C165.711 158.755 163.337 153.868 161.042 149.142C160.597 148.225 160.137 147.278 159.687 146.342C159.668 146.302 159.662 146.258 159.671 146.215C159.715 145.996 159.645 145.859 159.539 145.653C159.524 145.624 159.509 145.595 159.494 145.564C156.886 140.143 155.188 134.254 153.985 126.468C153.984 126.458 153.983 126.448 153.983 126.437C153.983 126.286 153.968 126.15 153.952 126.005C153.936 125.86 153.919 125.71 153.918 125.542C153.723 124.163 153.593 122.852 153.467 121.519C153.467 121.516 153.467 121.513 153.466 121.511C153.43 120.855 153.396 120.203 153.362 119.554C153.213 116.684 153.071 113.973 152.757 111.126C152.439 108.952 152.061 106.973 151.534 104.717C150.721 101.564 149.752 98.17 148.188 94.7495C148.137 94.648 148.137 94.5608 148.137 94.5032C148.137 94.4626 148.137 94.4522 148.126 94.4305C146.956 91.841 145.633 89.0565 143.872 86.1947C143.799 86.0856 143.761 85.989 143.727 85.9038C143.696 85.8271 143.67 85.7608 143.617 85.6808C143.55 85.5794 143.487 85.4824 143.426 85.3888C143.252 85.1204 143.102 84.8885 142.917 84.6552C142.908 84.6442 142.9 84.6322 142.894 84.6196C142.855 84.5418 142.836 84.4829 142.819 84.4309C142.805 84.3891 142.793 84.3527 142.77 84.306C141.773 82.8312 140.742 81.3065 139.612 79.7726C139.547 79.6835 139.565 79.5577 139.654 79.4917C139.743 79.4256 139.868 79.4443 139.933 79.5335C141.071 81.0778 142.107 82.6102 143.108 84.0919C143.113 84.0993 143.118 84.107 143.122 84.115C143.161 84.1928 143.18 84.2518 143.197 84.3039C143.21 84.3436 143.222 84.3785 143.242 84.422C143.434 84.6648 143.593 84.9101 143.761 85.1695C143.821 85.2621 143.883 85.3579 143.949 85.458C144.025 85.5728 144.064 85.6694 144.098 85.7547C144.128 85.8314 144.154 85.8976 144.207 85.9777C145.984 88.8642 147.314 91.6627 148.486 94.2577C148.536 94.3583 148.536 94.4455 148.536 94.5032C148.536 94.5437 148.537 94.5541 148.548 94.5758C150.128 98.0308 151.103 101.445 151.921 104.621C152.453 106.893 152.832 108.882 153.153 111.075C153.469 113.94 153.611 116.657 153.761 119.533C153.795 120.18 153.829 120.83 153.865 121.485C153.991 122.816 154.12 124.125 154.316 125.5C154.317 125.509 154.317 125.518 154.317 125.528C154.317 125.679 154.333 125.816 154.349 125.961C154.365 126.105 154.381 126.255 154.382 126.422C155.578 134.159 157.265 140.009 159.853 145.387C159.866 145.414 159.88 145.442 159.894 145.469C160.004 145.684 160.117 145.905 160.074 146.225C160.514 147.141 160.965 148.068 161.4 148.965C163.699 153.698 166.076 158.593 167.867 163.719C167.918 163.822 167.974 163.924 168.033 164.032C168.191 164.323 168.354 164.624 168.454 164.969C168.57 165.282 168.663 165.617 168.753 165.94C168.816 166.166 168.876 166.38 168.942 166.584C168.976 166.69 168.919 166.803 168.814 166.837C168.794 166.844 168.773 166.847 168.752 166.847Z" fill="#2B2B2B"/>
<path d="M159.642 167.891H167.597C167.494 167.307 167.399 166.722 167.313 166.133C166.612 161.343 166.485 156.381 165.091 151.806C161.213 139.081 148.105 130.713 135.471 122.915C130.693 119.965 125.915 117.016 121.137 114.067C117.826 112.023 118.728 111.03 115.867 108.639C116.685 113.911 119.073 119.072 122.294 123.554C123.989 125.913 126.124 128.056 127.329 130.646C129.343 134.978 128.647 140.331 131.143 144.446C135.461 151.562 147.941 153.103 154.219 159.115C156.82 161.606 158.239 164.753 159.642 167.891Z" fill="#708A54"/>
<path d="M164.133 169.71C164.029 169.71 163.942 169.63 163.934 169.524C163.591 164.927 162.522 160.516 160.755 156.416C158.706 151.659 156.145 148.371 154.087 145.73C151.812 142.808 149.604 140.653 147.831 138.921C147.009 138.118 146.299 137.425 145.742 136.808C141.499 132.11 136.244 128.354 131.161 124.721C126.747 121.565 122.181 118.301 118.27 114.421C118.192 114.343 118.191 114.216 118.268 114.137C118.346 114.058 118.472 114.057 118.551 114.135C122.439 117.993 126.991 121.247 131.393 124.393C136.493 128.039 141.766 131.808 146.038 136.538C146.586 137.146 147.292 137.835 148.109 138.633C149.891 140.373 152.109 142.539 154.402 145.482C156.473 148.142 159.052 151.452 161.122 156.256C162.906 160.398 163.986 164.852 164.332 169.494C164.34 169.605 164.258 169.701 164.148 169.709C164.143 169.71 164.138 169.71 164.133 169.71Z" fill="#2B2B2B"/>
<path d="M154.864 163.291C145.968 163.288 136.465 163.431 129.118 167.503C121.77 171.575 119.488 183.078 141.003 186.687C165.529 190.802 188.207 193.393 213.046 195.3C224.205 196.157 235.375 197.014 246.581 197.234C259.857 197.495 273.133 196.859 286.39 196.225C315.987 194.807 346.103 193.304 373.873 184.871C384.526 181.636 395.287 170.588 380.871 164.284C370.233 159.631 347.007 161.548 335.394 161.545C296.658 161.533 259.308 161.556 220.572 161.545C198.803 161.538 176.634 163.297 154.864 163.291Z" fill="#F2C285"/>
<path d="M239.826 51.5664H225.51V59.327H239.826V51.5664Z" fill="#808080"/>
<path d="M232.713 172.246C263.118 172.246 287.766 147.453 287.766 116.87C287.766 86.2861 263.118 61.4932 232.713 61.4932C202.308 61.4932 177.661 86.2861 177.661 116.87C177.661 147.453 202.308 172.246 232.713 172.246Z" fill="white"/>
<path d="M253.633 173.3C260.883 170.577 267.463 166.515 273.19 161.228C278.917 155.941 283.502 149.693 286.819 142.659C290.254 135.376 292.171 127.566 292.517 119.445C292.862 111.325 291.616 103.379 288.813 95.8265C286.105 88.5333 282.067 81.9146 276.811 76.1543C271.555 70.3941 265.344 65.7814 258.351 62.4447C251.11 58.9895 243.346 57.0616 235.274 56.7139C227.201 56.3662 219.301 57.6195 211.793 60.4395C204.543 63.1628 197.962 67.2246 192.235 72.512C186.509 77.7993 181.923 84.0466 178.607 91.0803C175.172 98.3641 173.254 106.174 172.909 114.294C172.563 122.415 173.81 130.361 176.613 137.913C179.32 145.207 183.358 151.825 188.614 157.586C193.871 163.346 200.082 167.959 207.075 171.295C214.316 174.75 222.08 176.678 230.153 177.026C238.225 177.374 246.125 176.12 253.633 173.3ZM177.711 114.501C179.009 83.9941 204.74 60.2376 235.068 61.5437C265.396 62.8499 289.013 88.7317 287.715 119.238C286.416 149.745 260.686 173.502 230.358 172.196C200.03 170.889 176.412 145.008 177.711 114.501Z" fill="#0F3E62"/>
<path d="M253.633 173.3C260.883 170.577 267.463 166.515 273.19 161.228C278.917 155.941 283.502 149.693 286.819 142.659C290.254 135.376 292.171 127.566 292.517 119.445C292.862 111.325 291.616 103.379 288.813 95.8265C286.105 88.5333 282.067 81.9146 276.811 76.1543C271.555 70.3941 265.344 65.7814 258.351 62.4447C251.11 58.9895 243.346 57.0616 235.274 56.7139C227.201 56.3662 219.301 57.6195 211.793 60.4395C204.543 63.1628 197.962 67.2246 192.235 72.512C186.509 77.7993 181.923 84.0466 178.607 91.0803C175.172 98.3641 173.254 106.174 172.909 114.294C172.563 122.415 173.81 130.361 176.613 137.913C179.32 145.207 183.358 151.825 188.614 157.586C193.871 163.346 200.082 167.959 207.075 171.295C214.316 174.75 222.08 176.678 230.153 177.026C238.225 177.374 246.125 176.12 253.633 173.3ZM177.711 114.501C179.009 83.9941 204.74 60.2376 235.068 61.5437C265.396 62.8499 289.013 88.7317 287.715 119.238C286.416 149.745 260.686 173.502 230.358 172.196C200.03 170.889 176.412 145.008 177.711 114.501Z" fill="#837D7D"/>
<path d="M214.934 79.3492L216.642 78.5811L233.478 116.445L264.585 125.815L264.048 127.618L232.121 118L214.934 79.3492Z" fill="#837D7D"/>
<path d="M272.198 117.632L272.118 119.512L284.716 120.055L284.796 118.175L272.198 117.632Z" fill="#837D7D"/>
<path d="M181.495 113.727L181.415 115.606L194.013 116.149L194.093 114.27L181.495 113.727Z" fill="#837D7D"/>
<path d="M233.996 64.8768L233.456 77.5488L235.325 77.6294L235.865 64.9573L233.996 64.8768Z" fill="#837D7D"/>
<path d="M230.107 156.101L229.567 168.773L231.436 168.854L231.975 156.182L230.107 156.101Z" fill="#837D7D"/>
<path d="M259.682 145.041L258.304 146.313L266.831 155.657L268.209 154.385L259.682 145.041Z" fill="#837D7D"/>
<path d="M198.61 77.5617L197.232 78.834L205.758 88.1779L207.136 86.9056L198.61 77.5617Z" fill="#837D7D"/>
<path d="M202.421 143.098L193.132 151.675L194.397 153.061L203.686 144.484L202.421 143.098Z" fill="#837D7D"/>
<path d="M269.55 80.6158L260.261 89.1924L261.526 90.5785L270.815 82.0019L269.55 80.6158Z" fill="#837D7D"/>
<path d="M238.34 121.997C241.142 119.178 241.142 114.609 238.34 111.791C235.539 108.972 230.996 108.972 228.194 111.791C225.392 114.609 225.392 119.178 228.194 121.997C230.996 124.815 235.539 124.815 238.34 121.997Z" fill="#837D7D"/>
<path d="M236.584 120.228C238.416 118.386 238.416 115.399 236.584 113.557C234.752 111.714 231.783 111.714 229.951 113.557C228.12 115.399 228.12 118.386 229.951 120.228C231.783 122.071 234.752 122.071 236.584 120.228Z" fill="white"/>
<path d="M228.723 115.722C228.797 115.43 228.899 115.146 229.028 114.871C229.288 114.32 229.648 113.83 230.097 113.416C230.546 113.001 231.061 112.683 231.63 112.469C232.218 112.248 232.837 112.15 233.47 112.177C234.103 112.205 234.712 112.356 235.279 112.626C235.827 112.888 236.314 113.25 236.726 113.701C237.138 114.153 237.455 114.672 237.667 115.243C237.887 115.835 237.985 116.458 237.958 117.095C237.931 117.731 237.78 118.344 237.511 118.914C237.251 119.466 236.892 119.955 236.443 120.37C235.994 120.785 235.478 121.103 234.909 121.317C234.321 121.537 233.702 121.636 233.069 121.608C232.436 121.581 231.827 121.43 231.26 121.159C230.712 120.898 230.225 120.536 229.813 120.085C229.401 119.633 229.084 119.114 228.872 118.542C228.652 117.951 228.555 117.328 228.582 116.691C228.596 116.361 228.643 116.037 228.723 115.722ZM237.812 118.063C237.892 117.748 237.939 117.425 237.953 117.095C237.98 116.459 237.883 115.836 237.663 115.245C237.451 114.674 237.135 114.155 236.723 113.704C236.311 113.253 235.825 112.892 235.277 112.63C234.71 112.36 234.102 112.209 233.47 112.182C232.838 112.154 232.219 112.253 231.631 112.473C231.063 112.687 230.548 113.005 230.099 113.419C229.651 113.833 229.292 114.323 229.032 114.873C228.763 115.444 228.613 116.055 228.586 116.691C228.559 117.327 228.656 117.95 228.876 118.541C229.088 119.112 229.404 119.631 229.816 120.082C230.228 120.533 230.714 120.894 231.262 121.155C231.829 121.426 232.437 121.577 233.069 121.604C233.701 121.631 234.32 121.533 234.908 121.313C235.476 121.099 235.991 120.781 236.439 120.367C236.888 119.953 237.247 119.464 237.507 118.913C237.637 118.638 237.738 118.354 237.812 118.063Z" fill="#0F3E62"/>
<path d="M249.084 41.2188H216.337V53.9807H249.084V41.2188Z" fill="#837D7D"/>
<path d="M333.006 21.3984H257.509C254.508 21.3984 252.076 23.8452 252.076 26.8634V175.205C252.076 178.487 254.721 181.148 257.983 181.148H333.006C336.268 181.148 338.913 178.487 338.913 175.205V27.341C338.913 24.059 336.268 21.3984 333.006 21.3984Z" fill="#808080"/>
<path d="M333.352 27.9209H257.637C257.114 27.9209 256.69 28.3474 256.69 28.8734V174.191C256.69 174.717 257.114 175.143 257.637 175.143H333.352C333.875 175.143 334.299 174.717 334.299 174.191V28.8734C334.299 28.3474 333.875 27.9209 333.352 27.9209Z" fill="#E6E6E6"/>
<path d="M304.51 25.7197H286.479V26.2286H304.51V25.7197Z" fill="black"/>
<path d="M251.867 130.247H252.36V27.5165C252.36 25.9452 252.954 24.4683 254.032 23.3576C255.109 22.2478 256.541 21.6368 258.063 21.6368C258.065 21.6368 258.066 21.6368 258.067 21.6368L283.565 21.6536L283.565 21.1447L258.068 21.1279C258.066 21.1279 258.065 21.1279 258.064 21.1279C256.409 21.1279 254.854 21.7919 253.683 22.9977C252.512 24.2045 251.867 25.8093 251.867 27.5166L251.867 130.247Z" fill="black"/>
<path d="M326.336 115.436L264.612 115.317C262.169 115.313 260.193 113.406 260.198 111.059L260.272 75.3625C260.277 73.0154 262.261 71.1164 264.703 71.1211L326.427 71.2398C328.87 71.2444 330.846 73.151 330.841 75.4982L330.767 111.195C330.762 113.542 328.778 115.441 326.336 115.436Z" fill="white"/>
<path d="M269.573 112.544L288.872 87.0898L302.954 102.661L310.023 96.4566L320.896 112.643L269.573 112.544Z" fill="#C5C5C5"/>
<path d="M326.336 162.518L264.612 162.4C262.169 162.395 260.193 160.488 260.198 158.141L260.272 122.445C260.277 120.097 262.261 118.198 264.703 118.203L326.427 118.322C328.87 118.327 330.846 120.233 330.841 122.58L330.767 158.277C330.762 160.624 328.778 162.523 326.336 162.518Z" fill="white"/>
<path d="M269.573 159.626L288.872 134.172L302.954 149.742L310.023 143.539L320.896 159.725L269.573 159.626Z" fill="#C5C5C5"/>
<path d="M270.221 40.4611C270.221 39.4655 270.369 38.63 270.665 37.9543C270.886 37.4566 271.188 37.0099 271.57 36.6143C271.952 36.2187 272.371 35.9255 272.826 35.7343C273.431 35.4766 274.129 35.3477 274.92 35.3477C276.352 35.3477 277.497 35.7943 278.357 36.6877C279.216 37.581 279.646 38.8234 279.646 40.4144C279.646 41.9923 279.22 43.2268 278.367 44.1178C277.514 45.009 276.374 45.4545 274.947 45.4545C273.502 45.4545 272.353 45.0111 271.5 44.1245C270.648 43.2379 270.221 42.0168 270.221 40.4611ZM272.243 40.3945C272.243 41.5012 272.497 42.3402 273.005 42.9113C273.513 43.4825 274.158 43.7679 274.94 43.7679C275.722 43.7679 276.364 43.4846 276.866 42.9179C277.367 42.3512 277.618 41.5012 277.618 40.3678C277.618 39.2478 277.374 38.4123 276.886 37.8611C276.397 37.31 275.749 37.0344 274.94 37.0344C274.132 37.0344 273.48 37.3134 272.985 37.8711C272.49 38.4289 272.243 39.27 272.243 40.3945Z" fill="#48695F"/>
<path d="M281.197 45.2882V35.5146H283.106L287.082 42.0415V35.5146H288.905V45.2882H286.937L283.019 38.9147V45.2882H281.197Z" fill="#48695F"/>
<path d="M291.032 45.2883V35.5947H292.994V43.6416H297.872V45.2883L291.032 45.2883Z" fill="#48695F"/>
<path d="M299.211 45.2882V35.5146H301.173V45.2882H299.211Z" fill="#48695F"/>
<path d="M303.062 45.2882V35.5146H304.971L308.948 42.0415V35.5146H310.77V45.2882H308.802L304.885 38.9147V45.2882H303.062Z" fill="#48695F"/>
<path d="M312.844 45.2882V35.5146H320.049V37.168H314.806V39.3347H319.684V40.9815H314.806V43.6415H320.234V45.2882H312.844Z" fill="#48695F"/>
<path d="M274.105 61.672H271.971L271.122 59.452H267.239L266.437 61.672H264.355L268.14 51.8984H270.214L274.105 61.672ZM270.493 57.8052L269.154 54.1785L267.842 57.8052H270.493Z" fill="#48695F"/>
<path d="M275.132 51.8986H277.094V57.192C277.094 58.032 277.118 58.5766 277.167 58.8254C277.251 59.2254 277.451 59.5465 277.767 59.7887C278.083 60.031 278.515 60.152 279.063 60.152C279.619 60.152 280.039 60.0377 280.322 59.8087C280.605 59.5798 280.775 59.2987 280.832 58.9653C280.89 58.632 280.918 58.0786 280.918 57.3053V51.8984H282.88V57.0319C282.88 58.2053 282.827 59.0343 282.721 59.5187C282.615 60.0032 282.42 60.4121 282.135 60.7454C281.85 61.0787 281.469 61.3443 280.991 61.5421C280.514 61.7398 279.891 61.8388 279.122 61.8388C278.194 61.8388 277.491 61.731 277.011 61.5155C276.532 61.3 276.153 61.0199 275.875 60.6755C275.596 60.3311 275.413 59.9699 275.324 59.5921C275.196 59.0321 275.132 58.2054 275.132 57.1121V51.8986Z" fill="#48695F"/>
<path d="M291.165 58.0792L293.067 58.6859C292.776 59.7526 292.291 60.5449 291.612 61.0626C290.934 61.5804 290.074 61.8393 289.031 61.8393C287.741 61.8393 286.68 61.396 285.85 60.5093C285.019 59.6226 284.604 58.4104 284.604 56.8725C284.604 55.2458 285.021 53.9825 285.856 53.0824C286.691 52.1824 287.789 51.7324 289.15 51.7324C290.339 51.7324 291.304 52.0857 292.047 52.7924C292.488 53.2102 292.82 53.8103 293.041 54.5925L291.099 55.0591C290.984 54.5524 290.744 54.1524 290.38 53.8591C290.015 53.5658 289.572 53.4191 289.051 53.4191C288.331 53.4191 287.746 53.6791 287.298 54.1991C286.849 54.7191 286.625 55.5613 286.625 56.7258C286.625 57.9614 286.846 58.8415 287.288 59.3659C287.73 59.8904 288.304 60.1526 289.011 60.1526C289.532 60.1526 289.981 59.986 290.356 59.6526C290.732 59.3193 291.002 58.7949 291.165 58.0792Z" fill="#48695F"/>
<path d="M296.938 61.672V53.5518H294.055V51.8984H301.776V53.5518H298.9V61.672H296.938Z" fill="#48695F"/>
<path d="M302.982 61.672V51.8984H304.944V61.672H302.982Z" fill="#48695F"/>
<path d="M306.416 56.8459C306.416 55.8503 306.564 55.0148 306.86 54.3391C307.08 53.8414 307.382 53.3947 307.764 52.9991C308.146 52.6035 308.565 52.3102 309.02 52.1191C309.626 51.8614 310.324 51.7324 311.115 51.7324C312.546 51.7324 313.692 52.1791 314.551 53.0725C315.411 53.9658 315.84 55.2081 315.84 56.7992C315.84 58.377 315.414 59.6116 314.561 60.5026C313.708 61.3938 312.568 61.8392 311.141 61.8392C309.696 61.8392 308.547 61.3959 307.695 60.5092C306.842 59.6226 306.416 58.4015 306.416 56.8459ZM308.437 56.7792C308.437 57.8859 308.691 58.7249 309.199 59.296C309.707 59.8671 310.352 60.1526 311.134 60.1526C311.917 60.1526 312.558 59.8693 313.06 59.3026C313.561 58.7359 313.812 57.8859 313.812 56.7525C313.812 55.6325 313.568 54.797 313.08 54.2457C312.592 53.6947 311.943 53.4191 311.135 53.4191C310.326 53.4191 309.674 53.6981 309.179 54.2558C308.684 54.8137 308.437 55.6548 308.437 56.7792Z" fill="#48695F"/>
<path d="M317.391 61.672V51.8984H319.3L323.277 58.4253V51.8984H325.099V61.672H323.131L319.214 55.2985V61.672H317.391Z" fill="#48695F"/>
<path d="M268.877 142.225L265.439 140.859L263.125 147.185L266.575 148.518C266.575 148.518 270.484 149.814 269.666 152.049L273.453 141.697C272.635 143.932 268.877 142.225 268.877 142.225Z" fill="#905210"/>
<path d="M271.518 152.775L275.305 142.422L273.453 141.696L269.666 152.049L271.518 152.775Z" fill="#E09850"/>
<path d="M326.567 169.649C317.425 165.808 282.989 150.401 279.221 148.925C275.453 147.449 273.174 148.247 273.174 148.247L271.518 152.775C271.518 152.775 274.001 151.416 277.77 152.892C281.538 154.368 315.741 170.412 324.851 174.34C333.962 178.267 349.735 181.082 349.735 181.082L351.186 177.115C351.186 177.115 335.709 173.491 326.567 169.649Z" fill="#B67635"/>
<path d="M329.068 162.81C319.728 159.51 283.832 148.094 280.064 146.618C276.296 145.142 275.304 142.422 275.304 142.422L273.174 148.246C273.174 148.246 275.452 147.448 279.221 148.924C282.989 150.4 317.425 165.808 326.567 169.649C335.709 173.49 351.186 177.114 351.186 177.114L352.03 174.808C352.03 174.808 338.409 166.11 329.068 162.81Z" fill="#B67635"/>
<path d="M339.646 166.179L334.933 179.063C334.897 179.162 334.789 179.212 334.693 179.174L332.639 178.37C332.542 178.332 332.493 178.22 332.53 178.121L337.242 165.238C337.278 165.138 337.386 165.088 337.483 165.126L339.537 165.931C339.633 165.968 339.682 166.08 339.646 166.179Z" fill="#E09850"/>
<path d="M306.802 154.403L302.786 165.381C302.75 165.481 302.642 165.531 302.546 165.493L300.581 164.723C300.484 164.686 300.436 164.574 300.472 164.475L304.488 153.496C304.524 153.397 304.632 153.347 304.729 153.385L306.693 154.154C306.79 154.192 306.838 154.303 306.802 154.403Z" fill="#E09850"/>
<path d="M270.046 139.356L265.615 151.47C265.538 151.681 265.31 151.786 265.106 151.706L255.837 148.076L260.547 135.199L269.816 138.83C270.02 138.91 270.123 139.145 270.046 139.356Z" fill="#905210"/>
<path d="M265.371 124.134L263.868 121.531L254.135 117.706L249.455 115.867L246.546 114.724L243.752 115.638C245.473 118.85 242.199 119.384 240.749 119.467L248.281 122.417L248.52 122.511L253.013 124.271L253.251 124.364L265.114 129.011C264.068 127.922 262.075 125.335 265.371 124.134Z" fill="#905210"/>
<path d="M255.3 155.842L243.437 151.195L243.199 151.102L238.706 149.342L238.468 149.248L230.935 146.298C231.968 147.353 234.08 149.997 230.735 151.225L232.244 153.824L235.156 154.961L239.839 156.79L249.58 160.594L252.372 159.673C250.67 156.514 253.819 155.941 255.3 155.842Z" fill="#905210"/>
<path d="M243.254 115.444L265.371 124.135C265.944 124.36 266.544 124.172 266.712 123.716L242.521 114.21C242.353 114.666 242.682 115.219 243.254 115.444Z" fill="#B67635"/>
<path d="M242.559 114.104L242.521 114.21L266.711 123.716L266.75 123.61C266.918 123.154 266.589 122.601 266.016 122.376L243.899 113.685C243.327 113.46 242.727 113.648 242.559 114.104Z" fill="#905210"/>
<path d="M230.238 151.03L252.372 159.673C252.945 159.897 253.275 160.448 253.109 160.905L228.898 151.452C229.065 150.995 229.664 150.806 230.238 151.03Z" fill="#B67635"/>
<path d="M228.86 151.558L228.898 151.452L253.108 160.906L253.07 161.011C252.903 161.468 252.303 161.657 251.73 161.433L229.596 152.79C229.022 152.566 228.693 152.015 228.86 151.558Z" fill="#905210"/>
<path d="M255.005 111.694L257.024 112.487L255.005 111.694Z" fill="#804C54"/>
<path d="M231.916 160.047L236.623 161.885C236.633 161.862 236.647 161.842 236.655 161.818L231.916 160.047Z" fill="#804C54"/>
<path d="M236.623 161.884L231.91 160.044L228.521 158.721C228.17 159.685 228.585 160.746 229.448 161.217C229.48 161.235 229.514 161.253 229.548 161.269C229.589 161.289 229.626 161.315 229.669 161.331L246.223 167.795C247.238 168.191 248.37 167.665 248.751 166.62L236.623 161.884Z" fill="#B67635"/>
<path d="M250.272 109.85L255.002 111.708C255.004 111.703 255.004 111.699 255.006 111.695L250.276 109.836C250.274 109.84 250.274 109.845 250.272 109.85Z" fill="#B96B5B"/>
<path d="M231.916 160.031C231.915 160.036 231.912 160.039 231.91 160.044L236.644 161.892C236.645 161.888 236.648 161.884 236.65 161.879L231.916 160.031Z" fill="#B96B5B"/>
<path d="M227.36 158.253L231.917 160.032L227.36 158.253C227.36 158.253 227.36 158.253 227.36 158.253Z" fill="#B96B5B"/>
<path d="M268.143 116.856L257.024 112.487L255.005 111.694C255.004 111.698 255.003 111.703 255.002 111.707L250.272 109.849C250.271 109.851 250.271 109.852 250.271 109.854L245.667 108.045C244.227 107.588 242.674 108.342 242.134 109.813L242.134 109.813C241.571 111.347 242.322 113.065 243.811 113.65L246.545 114.724C246.545 114.724 250.047 116.056 249.455 115.868L254.135 117.707L263.868 121.531L266.105 122.41C267.594 122.995 269.257 122.227 269.82 120.693C270.383 119.159 269.632 117.442 268.143 116.856Z" fill="#B67635"/>
<path d="M245.667 108.046L250.271 109.855C250.271 109.853 250.272 109.851 250.272 109.85L245.72 108.06C245.702 108.055 245.685 108.051 245.667 108.046Z" fill="#B96B5B"/>
<path d="M246.889 108.504L245.85 108.096C245.807 108.079 245.763 108.074 245.72 108.06L250.272 109.849C250.274 109.844 250.274 109.84 250.275 109.835L246.889 108.504Z" fill="#B96B5B"/>
<path d="M265.96 113.835L249.42 107.335C249.377 107.318 249.332 107.313 249.288 107.299C249.252 107.287 249.217 107.278 249.18 107.269C248.233 107.032 247.243 107.542 246.89 108.505L250.276 109.836L255.006 111.694L257.024 112.487L267.103 116.448C267.487 115.403 266.975 114.234 265.96 113.835Z" fill="#B67635"/>
<path d="M265.352 129.105L265.114 129.012L253.251 124.365L253.013 124.272L248.52 122.512L248.281 122.418L240.749 119.468L240.084 119.207C239.031 118.795 237.857 119.339 237.461 120.423C237.114 121.371 237.478 122.418 238.279 122.941L235.342 130.97L235.132 131.545L231.307 142.003C230.371 141.846 229.429 142.381 229.082 143.329C228.686 144.413 229.217 145.625 230.27 146.038L230.935 146.298L238.468 149.249L238.706 149.342L243.199 151.102L243.437 151.195L255.3 155.842L255.538 155.936C256.59 156.348 257.765 155.804 258.161 154.72C258.508 153.772 258.144 152.725 257.342 152.202L261.168 141.743L261.378 141.169L264.315 133.139C265.25 133.297 266.193 132.762 266.54 131.813C266.936 130.73 266.404 129.517 265.352 129.105Z" fill="#B67635"/>
<path d="M227.481 158.315L231.91 160.045C231.912 160.04 231.915 160.036 231.916 160.032L227.36 158.253C227.402 158.272 227.438 158.298 227.481 158.315Z" fill="#B96B5B"/>
<path d="M227.312 158.228C227.329 158.235 227.343 158.244 227.359 158.252L231.916 160.031C231.917 160.029 231.918 160.028 231.919 160.026L227.312 158.228Z" fill="#B96B5B"/>
<path d="M251.818 161.467L249.58 160.593L239.839 156.79L235.156 154.961L232.244 153.824L229.507 152.755C228.017 152.173 226.355 152.946 225.796 154.481C225.258 155.954 225.94 157.583 227.312 158.227C227.312 158.227 227.312 158.227 227.313 158.227L231.919 160.026C231.918 160.028 231.917 160.029 231.917 160.031L236.65 161.879C236.648 161.884 236.646 161.887 236.644 161.892L249.792 167.026C251.282 167.608 252.944 166.835 253.504 165.3C254.064 163.765 253.309 162.049 251.818 161.467Z" fill="#B67635"/>
<path d="M255.247 129.633L247.752 126.697L244.071 125.255L238.265 122.98L235.342 130.97L235.132 131.544L231.321 141.963L237.127 144.237L240.808 145.679L248.304 148.615L257.356 152.161L261.168 141.743L261.378 141.168L264.3 133.179L255.247 129.633Z" fill="#B67635"/>
<path d="M267.521 116.812C267.497 116.812 267.472 116.808 267.448 116.799L245.647 108.246C245.544 108.206 245.494 108.09 245.534 107.986C245.574 107.883 245.69 107.832 245.792 107.872L267.594 116.424C267.696 116.465 267.747 116.581 267.707 116.684C267.676 116.764 267.601 116.812 267.521 116.812Z" fill="#202020"/>
<path d="M264.307 133.382C264.283 133.382 264.258 133.378 264.235 133.369L238.26 123.194C238.157 123.153 238.106 123.037 238.146 122.934C238.186 122.83 238.302 122.779 238.405 122.819L264.379 132.994C264.482 133.035 264.533 133.151 264.493 133.254C264.462 133.334 264.387 133.382 264.307 133.382Z" fill="#202020"/>
<path d="M257.342 152.454C257.318 152.454 257.293 152.449 257.269 152.44L231.234 142.19C231.131 142.149 231.081 142.033 231.121 141.929C231.161 141.826 231.277 141.775 231.379 141.816L257.415 152.066C257.517 152.106 257.568 152.223 257.528 152.326C257.497 152.405 257.422 152.454 257.342 152.454Z" fill="#202020"/>
<path d="M265.95 150.755C265.927 150.755 265.904 150.751 265.881 150.742C265.778 150.704 265.725 150.589 265.763 150.485L269.859 139.286C269.897 139.182 270.012 139.129 270.115 139.167C270.219 139.205 270.272 139.32 270.234 139.424L266.138 150.623C266.108 150.704 266.031 150.755 265.95 150.755Z" fill="#202020"/>
<path d="M244.537 165.175C244.513 165.175 244.489 165.17 244.465 165.161L227.241 158.414C227.138 158.374 227.087 158.258 227.127 158.154C227.167 158.051 227.283 158 227.385 158.04L244.61 164.787C244.713 164.827 244.764 164.943 244.724 165.047C244.693 165.126 244.617 165.175 244.537 165.175Z" fill="#202020"/>
<path d="M335.871 176.7C335.848 176.7 335.825 176.696 335.802 176.688C335.699 176.65 335.646 176.534 335.684 176.43L339.459 166.11C339.497 166.006 339.612 165.953 339.715 165.991C339.818 166.029 339.871 166.145 339.833 166.249L336.058 176.569C336.029 176.65 335.952 176.7 335.871 176.7Z" fill="#202020"/>
<path d="M278.252 180.912H206.526C204.94 180.912 203.87 179.387 204.493 178.016L206.131 174.413L210.228 165.397C210.576 164.632 211.377 164.136 212.261 164.136H272.517C273.402 164.136 274.202 164.632 274.55 165.397L278.648 174.413L280.285 178.016C280.909 179.387 279.838 180.912 278.252 180.912Z" fill="#905210"/>
<path d="M278.252 180.912H206.526C204.94 180.912 203.87 179.387 204.493 178.016L206.131 174.413H278.648L280.285 178.016C280.909 179.387 279.838 180.912 278.252 180.912Z" fill="#75400A"/>
<path d="M126.43 94.4279C124.387 95.0678 123.871 95.5866 123.235 97.6418C122.599 95.5866 122.083 95.0678 120.04 94.4279C122.083 93.7879 122.598 93.2691 123.235 91.2139C123.871 93.269 124.387 93.7878 126.43 94.4279Z" fill="url(#paint0_linear_26823_230994)"/>
<path d="M250.302 5.75598C248.259 6.39592 247.743 6.91474 247.107 8.96989C246.471 6.91474 245.955 6.39592 243.912 5.75598C245.955 5.11603 246.471 4.59722 247.107 2.54199C247.743 4.59722 248.259 5.11603 250.302 5.75598Z" fill="url(#paint1_linear_26823_230994)"/>
<path d="M370.427 7.30919C368.556 7.89504 368.084 8.36992 367.502 10.2512C366.92 8.36992 366.447 7.89504 364.577 7.30919C366.447 6.72335 366.92 6.24845 367.502 4.36719C368.084 6.24853 368.556 6.72343 370.427 7.30919Z" fill="url(#paint2_linear_26823_230994)"/>
<path d="M391.725 60.6166C389.209 61.4048 388.574 62.0438 387.79 64.575C387.007 62.0438 386.371 61.4048 383.855 60.6166C386.371 59.8284 387.007 59.1894 387.79 56.6582C388.574 59.1894 389.209 59.8284 391.725 60.6166Z" fill="url(#paint3_linear_26823_230994)"/>
<path d="M303.108 4.36696C299.789 5.40648 298.951 6.24917 297.918 9.58743C296.885 6.24917 296.047 5.40648 292.728 4.36696C296.047 3.32744 296.885 2.48475 297.918 -0.853516C298.951 2.48475 299.789 3.32744 303.108 4.36696Z" fill="url(#paint4_linear_26823_230994)"/>
<path d="M186.649 83.8206C186.656 83.0798 187.067 81.8347 188.29 81.2376C191.623 79.6109 201.197 73.6418 204.556 72.3105C204.832 72.1672 204.712 72.3397 204.923 72.2383C205.13 73.5711 206.787 75.553 206.934 75.8171C205.299 77.1196 194.438 88.2259 189.78 88.9C187.592 89.2167 186.634 85.5991 186.649 83.8206Z" fill="#F59979"/>
<path d="M185.122 86.4084C185.122 86.4084 181.466 82.3663 179.784 77.9272C180.66 77.3826 186.81 73.8301 186.81 73.8301C186.81 73.8301 188.071 77.3327 191.504 81.3312C193.175 83.0863 193.564 85.4811 192.58 87.11C191.689 88.5842 190.021 88.8555 189.843 88.8815C188.075 89.14 186.191 88.1703 185.122 86.4084Z" fill="#F59979"/>
<path d="M178.683 61.1025C181.595 65.0456 184.513 69.1731 187.414 73.4892C188.376 74.9201 189.318 76.3444 190.24 77.7611C190.666 78.4163 190.546 79.2874 189.96 79.8029L189.95 79.812C189.341 80.3853 188.539 81.2873 187.916 82.5702C186.717 85.0372 186.932 87.363 187.08 88.3393C186.511 88.7092 185.764 89.0588 185.149 88.7956C184.683 88.5964 184.474 88.1265 184.413 87.9884C183.685 86.3269 178.332 83.3069 175.385 78.1673C173.308 74.5443 173.009 70.8845 170.363 69.7469C170.19 69.6722 169.897 69.5618 169.771 69.2765C169.127 67.819 173.918 64.245 178.683 61.1025Z" fill="#AB4F47"/>
<path d="M184.351 87.6715C184.341 87.6715 184.332 87.6707 184.322 87.6693C184.213 87.6529 184.137 87.5507 184.154 87.441C184.173 87.3127 184.623 84.2887 185.007 83.4616C185.054 83.3611 185.173 83.3177 185.273 83.3646C185.373 83.4116 185.416 83.531 185.369 83.6315C185.01 84.4063 184.553 87.4694 184.548 87.5003C184.534 87.5999 184.449 87.6715 184.351 87.6715Z" fill="#302626"/>
<path d="M203.465 78.894C202.401 79.799 200.198 74.5138 200.198 74.5138L209.002 68.709L211.941 71.4874C211.941 71.4874 204.943 77.6366 203.465 78.894Z" fill="#F59979"/>
<path d="M219.547 70.1371C219.606 70.2975 219.732 70.4236 219.745 70.6059C221.264 70.3202 223.996 68.8517 223.857 68.2725C223.682 67.8479 222.271 68.6257 219.205 69.2721C219.507 69.5446 219.406 69.7517 219.547 70.1371Z" fill="#F59979"/>
<path d="M207.925 70.1345C207.925 70.1345 209.236 67.2896 212.45 67.0959C213.124 67.0043 214.068 66.8555 216.323 66.9329C217.437 66.9712 218.573 66.6434 219.407 66.7236C219.747 66.7638 220.793 67.4985 218.89 68.1879C218.85 68.2023 218.808 68.2149 218.766 68.2234C218.495 68.2793 216.676 68.8215 215.823 68.8762C215.849 68.8552 214.613 71.3255 214.613 71.3255C214.613 71.3255 213.936 71.4238 211.392 71.9775C211.3 71.9664 207.925 70.1345 207.925 70.1345Z" fill="#F59979"/>
<path d="M220.685 69.137C219.524 69.079 218.45 68.8639 217.381 68.687C217.257 68.6666 215.624 68.3035 215.581 68.389C215.581 68.389 214.035 71.1145 214.049 71.4265C215.6 71.1614 219.403 70.8894 220.627 70.3599C220.65 70.3499 220.564 69.4356 220.685 69.137Z" fill="#F59979"/>
<path d="M214.697 69.4969C214.621 69.4969 214.548 69.4528 214.515 69.3783C214.469 69.2772 214.514 69.1584 214.615 69.1129C215.345 68.783 217.205 68.4157 217.283 68.4002C217.391 68.3791 217.496 68.45 217.518 68.5588C217.539 68.6677 217.468 68.7731 217.36 68.7944C217.341 68.7981 215.467 69.1682 214.779 69.4793C214.752 69.4912 214.724 69.4969 214.697 69.4969Z" fill="#302626"/>
<path d="M211.239 72.1614C211.199 72.1614 211.157 72.1598 211.113 72.1564C210.86 72.1367 210.618 72.0785 210.435 72.0299L208.713 71.5708C208.607 71.5425 208.543 71.4325 208.572 71.3253C208.6 71.2181 208.709 71.1539 208.816 71.1826L210.538 71.6417C210.704 71.6859 210.923 71.7388 211.144 71.7559C211.331 71.7709 211.471 71.7404 211.634 71.7055C211.673 71.6971 211.712 71.6886 211.753 71.6806L213.961 71.2454C214.07 71.2242 214.175 71.295 214.196 71.4039C214.217 71.5127 214.147 71.6183 214.038 71.6395L211.83 72.0747C211.791 72.0823 211.754 72.0903 211.717 72.0983C211.572 72.1294 211.423 72.1614 211.239 72.1614Z" fill="#302626"/>
<path d="M177.87 96.4526C177.396 95.977 167.62 91.6222 167.62 91.6222C166.966 90.3544 163.031 96.0203 161.912 104.791C160.684 114.429 166.442 137.456 167.269 142.291C168.214 147.816 180.903 143.26 180.801 141.28C180.133 128.381 179.534 107.196 177.87 96.4526Z" fill="#48695F"/>
<path d="M175.768 180.471C175.766 180.469 175.765 180.468 175.763 180.467C175.766 180.472 175.767 180.473 175.768 180.471Z" fill="#F59979"/>
<path d="M178.905 175.516C178.619 173.5 178.394 163.656 178.394 163.656L172.292 165.286L173.136 178.563C173.136 178.563 173.493 178.593 174.039 178.585C174.123 179.186 174.197 179.743 174.187 179.765C175.965 181.928 182 178.829 182 178.829C179.465 178.223 178.979 175.978 178.905 175.516Z" fill="#F59979"/>
<path d="M173.042 177.077C173.042 177.077 173.046 179.722 173.343 181.631C173.367 181.789 173.478 181.915 173.623 181.952C174.457 182.164 177.393 182.859 181.373 183.055C182.049 183.02 185.778 183.351 187.207 182.545C187.456 182.405 187.59 182.103 187.546 181.796C187.41 180.838 186.916 179.743 182.001 178.828C178.654 179.932 174.902 179.68 173.042 177.077Z" fill="#302626"/>
<path d="M167.269 142.29C167.671 147.271 171.022 166.285 171.803 173.687C176.929 174.734 176.916 173.978 181.248 172.58C181.615 163.964 181.109 144.911 180.637 137.95C179.977 128.229 166.885 137.551 167.269 142.29Z" fill="#48695F"/>
<path d="M174.965 174.371C174.806 174.371 174.655 174.367 174.512 174.362C172.805 174.296 171.773 173.892 171.73 173.874C171.628 173.834 171.577 173.717 171.618 173.614C171.659 173.511 171.775 173.46 171.877 173.501C171.927 173.521 175.964 175.06 181.158 172.402C181.256 172.351 181.376 172.391 181.426 172.49C181.476 172.589 181.437 172.709 181.339 172.76C178.793 174.063 176.533 174.371 174.965 174.371Z" fill="#07242B"/>
<path d="M168.136 96.6077C167.725 96.0752 158.579 90.5063 158.579 90.5063C158.09 89.1652 153.471 94.2823 151.254 102.839C148.818 112.242 150.778 135.589 150.988 140.49C151.227 146.091 164.455 142.377 164.604 140.4C165.571 127.52 168.429 107.477 168.136 96.6077Z" fill="#48695F"/>
<path d="M155.438 179.676C155.437 179.675 155.435 179.673 155.434 179.672C155.436 179.677 155.437 179.678 155.438 179.676Z" fill="#F59979"/>
<path d="M160.249 175.534C160.008 173.513 160.002 163.666 160.002 163.666L153.866 165.158L154.414 178.451C154.414 178.451 154.77 178.489 155.317 178.494C155.387 179.096 155.449 179.654 155.438 179.676C157.168 181.879 163.27 178.916 163.27 178.916C160.749 178.254 160.313 175.998 160.249 175.534Z" fill="#F59979"/>
<path d="M154.353 176.964C154.353 176.964 154.299 179.609 154.552 181.524C154.573 181.682 154.682 181.811 154.825 181.851C155.655 182.082 158.575 182.842 162.549 183.127C163.225 183.108 166.946 183.523 168.392 182.75C168.645 182.615 168.785 182.316 168.748 182.008C168.633 181.047 168.164 179.942 163.27 178.916C159.9 179.944 156.155 179.608 154.353 176.964Z" fill="#302626"/>
<path d="M150.988 140.489C150.758 145.482 152.523 164.998 152.363 172.441C157.315 174.134 157.397 173.382 161.871 172.55C163.323 164.05 164.405 143.716 164.816 136.75C165.389 127.024 151.206 135.74 150.988 140.489Z" fill="#48695F"/>
<path d="M165.19 133.562C165.181 133.562 165.172 133.561 165.162 133.56C165.053 133.545 164.977 133.444 164.992 133.334C165.146 132.2 167.232 113.009 167.253 112.815C167.259 112.765 167.283 112.718 167.322 112.685L169.593 110.728C169.676 110.656 169.802 110.666 169.874 110.75C169.946 110.834 169.936 110.961 169.852 111.033L167.642 112.938C167.494 114.292 165.537 132.286 165.387 133.388C165.374 133.489 165.288 133.562 165.19 133.562Z" fill="#07242B"/>
<path d="M154.083 106.343C154.071 106.343 154.059 106.342 154.046 106.34L150.689 105.707C150.581 105.687 150.51 105.582 150.53 105.473C150.55 105.364 150.655 105.292 150.763 105.312L153.924 105.908L154.27 104.052L151.258 103.484C151.149 103.464 151.078 103.359 151.098 103.25C151.119 103.141 151.223 103.069 151.331 103.089L154.539 103.694C154.591 103.704 154.637 103.734 154.667 103.778C154.697 103.822 154.708 103.876 154.699 103.928L154.279 106.179C154.262 106.276 154.178 106.343 154.083 106.343Z" fill="#07242B"/>
<path d="M157.068 173.724C156.274 173.724 155.58 173.645 155.007 173.54C153.306 173.227 152.302 172.638 152.261 172.613C152.166 172.556 152.134 172.433 152.19 172.338C152.247 172.242 152.369 172.211 152.464 172.267C152.474 172.273 153.46 172.85 155.097 173.148C156.605 173.422 158.992 173.509 161.795 172.363C161.897 172.322 162.014 172.371 162.055 172.474C162.097 172.576 162.047 172.694 161.945 172.735C160.107 173.487 158.44 173.724 157.068 173.724Z" fill="#07242B"/>
<path d="M155.888 54.0841C155.129 58.553 153.276 64.7478 155.836 69.1193C161.202 71.9787 163.166 70.6599 168.837 68.4791C169.768 68.1215 170.665 67.6845 171.562 67.2482C173.482 66.3137 175.401 65.3792 177.321 64.4447C177.744 64.2389 178.223 63.955 178.267 63.4848C178.291 63.2273 178.172 62.9807 178.056 62.7498C176.938 60.5236 175.568 58.9038 174.613 56.3446C174.101 54.975 173.528 53.3831 173.116 51.98C172.722 50.638 172.524 49.2473 172.306 47.8652C171.969 45.7309 171.238 41.364 169.949 38.8221C168.972 36.897 168.572 37.7621 166.724 36.6607C164.875 35.5593 162.462 35.3009 160.568 36.3212C159.378 36.9624 158.476 38.0155 157.448 38.8719C156.795 39.4153 156.215 39.7907 155.978 40.6466C155.236 43.3305 155.927 46.5515 156.068 49.281C156.15 50.883 156.158 52.4982 155.888 54.0841Z" fill="#302626"/>
<path d="M180.463 64.1077C178.271 59.7246 173.957 57.5087 170.05 57.4328C169.243 57.4171 166.97 58.5167 163.876 59.0406C160.762 58.6552 157.266 58.2239 157.25 58.229C152.008 59.8784 150.51 60.018 147.903 62.9558C147.47 63.4434 150.118 68.8944 150.579 71.0412C151.209 73.9724 153.069 93.0118 153.061 95.9917C160.236 99.4715 176.295 96.4392 176.864 96.1039C176.279 87.837 177.638 74.8409 178.276 69.7827C178.528 67.7862 180.726 64.634 180.463 64.1077Z" fill="#AB4F47"/>
<path d="M160.686 55.9555L159.874 46.5586L166.339 48.8764L166.925 55.9323C166.929 55.9804 166.935 56.0279 166.944 56.0746C167.053 56.6266 167.576 57.1891 168.135 57.2107L170.85 57.5256C170.85 57.5256 166.306 65.1152 156.997 58.3079C158.328 57.7997 159.187 57.5765 159.948 57.2333C160.44 57.0116 160.733 56.4955 160.686 55.9555Z" fill="#F59979"/>
<path d="M160.068 48.8002L160.433 53.0267C162.745 54.5656 165.633 53.8305 166.727 53.5494L166.339 48.8772L160.975 46.9541C160.761 47.603 160.317 48.1237 160.068 48.8002Z" fill="#DD7A5C"/>
<path d="M164.246 61.2237C162.899 61.2237 161.308 60.9118 159.471 60.0662C159.371 60.02 159.327 59.9009 159.373 59.8C159.419 59.6992 159.537 59.6549 159.637 59.701C162.733 61.1259 165.583 61.1928 167.879 59.8943C169.61 58.9153 170.43 57.5046 170.438 57.4904C170.493 57.3943 170.615 57.3612 170.71 57.4164C170.806 57.4716 170.839 57.5943 170.784 57.6905C170.749 57.7521 169.901 59.2119 168.075 60.2445C167.153 60.7656 165.878 61.2237 164.246 61.2237Z" fill="#07242B"/>
<path d="M161.22 67.9097C162.106 67.3952 163.888 68.8316 165.2 71.118C165.264 71.2301 165.326 71.3422 165.386 71.4541C165.436 71.3375 165.488 71.2205 165.543 71.1032C166.656 68.7124 168.309 67.1281 169.236 67.5645C170.162 68.0009 170.011 70.2928 168.897 72.6835C168 74.6102 166.752 76.0128 165.817 76.2566C165.746 76.2784 165.671 76.2905 165.592 76.293C165.513 76.2973 165.437 76.2917 165.365 76.2761C164.412 76.1137 163.05 74.8235 161.992 72.981C160.68 70.6946 160.334 68.4241 161.22 67.9097Z" fill="white"/>
<path d="M150.939 73.5648C150.829 73.5648 150.74 73.476 150.739 73.3658C150.738 73.3089 150.678 67.6628 149.476 65.7434C149.417 65.6495 149.445 65.5256 149.539 65.4664C149.632 65.4074 149.755 65.4355 149.814 65.5294C151.076 67.5451 151.136 73.1258 151.138 73.3624C151.139 73.4732 151.051 73.5639 150.94 73.5648C150.94 73.5648 150.939 73.5648 150.939 73.5648Z" fill="#07242B"/>
<path d="M168.282 36.4542C167.682 35.8163 166.904 35.3507 166.072 35.0869C165.436 34.8856 164.767 34.8169 164.102 34.7742C163.219 34.7174 161.215 34.4761 158.598 36.2672C156.69 37.5727 156.07 39.6456 155.957 40.9825C155.769 43.2151 156.389 45.5128 157.699 47.325C159.009 49.1373 161.002 50.4437 163.185 50.8874C164.021 51.0574 169.334 47.0717 170.058 45.5416C170.395 44.8274 172.189 40.6068 168.282 36.4542Z" fill="#302626"/>
<path d="M157.925 44.8983C158.091 49.3513 160.428 52.497 162.579 52.7176C166.893 53.1599 168.591 49.314 168.783 44.6005C168.964 40.1482 165.954 37.5154 162.893 37.6306C159.831 37.7456 157.76 40.4454 157.925 44.8983Z" fill="#F59979"/>
<path d="M160.712 45.0942C160.719 45.3942 160.6 45.6403 160.446 45.644C160.293 45.6476 160.162 45.4074 160.155 45.1075C160.148 44.8075 160.267 44.5614 160.421 44.5577C160.574 44.554 160.705 44.7942 160.712 45.0942Z" fill="#302626"/>
<path d="M165.504 44.4926C165.547 44.7896 165.705 45.0122 165.857 44.9899C166.009 44.9677 166.098 44.7089 166.055 44.412C166.012 44.1151 165.854 43.8924 165.702 43.9146C165.55 43.9369 165.461 44.1956 165.504 44.4926Z" fill="#302626"/>
<path d="M168.498 44.6094C168.498 44.6094 170.252 42.9789 171.184 44.3824C171.441 44.7698 171.533 45.2495 171.454 45.7084C171.285 46.6818 170.534 48.171 168.116 47.7915C168.118 47.9018 168.498 44.6094 168.498 44.6094Z" fill="#F59979"/>
<path d="M168.822 46.8294C168.791 46.8294 168.759 46.8221 168.73 46.8065C168.632 46.7553 168.594 46.634 168.645 46.5356C169.354 45.1688 170.671 44.9991 170.727 44.9926C170.836 44.9799 170.936 45.0585 170.948 45.1686C170.961 45.2786 170.883 45.3782 170.774 45.3913C170.724 45.3976 169.607 45.5498 168.999 46.7214C168.964 46.7901 168.894 46.8294 168.822 46.8294Z" fill="#07242B"/>
<path d="M170.131 46.4725C170.081 46.4725 170.031 46.4536 169.993 46.4159L169.469 45.9056C169.39 45.8284 169.388 45.7012 169.465 45.6216C169.542 45.5419 169.668 45.54 169.747 45.6172L170.27 46.1275C170.35 46.2047 170.352 46.3318 170.275 46.4114C170.236 46.4521 170.184 46.4725 170.131 46.4725Z" fill="#07242B"/>
<path d="M158.279 45.1562C158.279 45.1562 156.462 43.5964 155.586 45.0355C155.344 45.4327 155.27 45.9158 155.368 46.3712C155.575 47.3372 156.383 48.7956 158.784 48.3209C158.786 48.4313 158.279 45.1562 158.279 45.1562Z" fill="#F59979"/>
<path d="M158.034 47.3869C157.965 47.3869 157.897 47.3507 157.86 47.2859C157.202 46.1306 156.047 46.0279 156.036 46.027C155.926 46.0185 155.844 45.9219 155.852 45.8113C155.861 45.7008 155.957 45.6177 156.067 45.6266C156.122 45.631 157.445 45.7486 158.207 47.0863C158.262 47.1825 158.229 47.3052 158.133 47.3603C158.102 47.3783 158.067 47.3869 158.034 47.3869Z" fill="#07242B"/>
<path d="M156.711 47.0815C156.661 47.0815 156.612 47.0631 156.573 47.026C156.493 46.9495 156.49 46.8224 156.566 46.7421L157.069 46.2116C157.145 46.1314 157.272 46.1283 157.352 46.2049C157.431 46.2814 157.434 46.4085 157.358 46.4888L156.855 47.0193C156.816 47.0606 156.763 47.0815 156.711 47.0815Z" fill="#07242B"/>
<path d="M168.788 44.3757C167.135 39.9922 162.101 39.3581 162.15 37.7037C163.296 37.5576 163.963 36.2803 165.109 36.1343C165.493 36.0854 165.882 36.0366 166.264 36.0984C166.782 36.1824 167.248 36.4651 167.663 36.789C168.439 37.3951 169.086 38.1668 169.55 39.0381C169.782 39.4753 169.972 39.9473 170.002 40.4421C170.061 41.392 169.538 42.28 169.429 43.2254C169.343 43.9713 169.15 44.1582 168.788 44.3757Z" fill="#302626"/>
<path d="M163.039 47.6309C162.929 47.6309 162.84 47.5414 162.84 47.4307C162.84 47.3198 162.929 47.2296 163.039 47.2293C163.236 47.2287 163.429 47.1946 163.615 47.128C163.736 47.0845 163.809 47.0351 163.834 46.981C163.873 46.8942 163.809 46.7503 163.749 46.6346C163.687 46.5156 163.623 46.3977 163.559 46.2799C163.42 46.0257 163.276 45.7628 163.159 45.4869C162.951 44.9947 162.871 44.5557 162.915 44.1449C162.927 44.0347 163.025 43.9555 163.135 43.9669C163.245 43.9789 163.324 44.0779 163.312 44.1882C163.276 44.5288 163.346 44.9022 163.526 45.3296C163.635 45.587 163.774 45.8408 163.908 46.0864C163.974 46.2068 164.04 46.3272 164.103 46.4489C164.169 46.5752 164.322 46.871 164.197 47.1471C164.125 47.3063 163.979 47.4237 163.749 47.5063C163.521 47.5883 163.282 47.6302 163.04 47.631C163.04 47.6309 163.04 47.6309 163.039 47.6309Z" fill="#07242B"/>
<path d="M162.514 37.7278C162.514 37.7278 158.372 40.5094 157.691 44.7573C157.69 44.7568 154.338 36.9518 162.808 36.4277L162.514 37.7278Z" fill="#302626"/>
<path d="M172.66 50.0127C173.696 53.9262 175.415 57.3868 176.968 61.6077C178.112 64.7158 176.233 69.5829 176.16 73.1555C174.624 74.0073 170.433 73.7731 168.903 72.908C168.375 66.1551 166.744 62.6083 166.962 53.2697C167.454 53.3726 168.085 52.1626 168.484 51.8563C169.486 51.0873 171.453 50.3807 172.66 50.0127Z" fill="#302626"/>
<path d="M175.758 71.4837C175.726 71.4837 175.692 71.4755 175.662 71.4585C175.565 71.4047 175.531 71.2826 175.584 71.1855C175.767 70.8529 175.963 70.522 176.17 70.1717C177.496 67.9317 178.998 65.393 177.705 61.4775C177.243 60.0782 176.312 58.6533 175.326 57.1446C174.134 55.3215 172.902 53.4362 172.564 51.5817C172.544 51.4727 172.616 51.368 172.725 51.348C172.833 51.3283 172.937 51.4003 172.957 51.5092C173.28 53.2836 174.49 55.1342 175.659 56.924C176.616 58.3878 177.605 59.9016 178.084 61.3509C179.434 65.4405 177.815 68.1777 176.514 70.3769C176.308 70.7246 176.114 71.053 175.933 71.3803C175.897 71.4463 175.829 71.4837 175.758 71.4837Z" fill="#07242B"/>
<path d="M161.919 49.0397C161.919 49.0397 164.089 48.8214 165.025 48.6455C165.025 48.6455 164.152 52.2537 161.919 49.0397Z" fill="white"/>
<path d="M158.928 44.0307C158.874 44.0307 158.82 44.0088 158.78 43.9657C158.706 43.8839 158.711 43.7569 158.793 43.6819C158.836 43.6418 159.879 42.7011 161.447 43.0437C161.555 43.0672 161.623 43.1742 161.6 43.2826C161.576 43.391 161.47 43.4597 161.362 43.4362C159.994 43.137 159.072 43.9695 159.063 43.978C159.024 44.0133 158.976 44.0307 158.928 44.0307Z" fill="#07242B"/>
<path d="M166.981 43.1328C166.942 43.1328 166.902 43.1213 166.868 43.097C165.948 42.4547 164.853 42.9153 164.842 42.9199C164.741 42.9636 164.623 42.9167 164.58 42.815C164.536 42.7134 164.582 42.5955 164.683 42.5513C164.736 42.5284 165.99 41.9951 167.095 42.7671C167.186 42.8303 167.208 42.9555 167.146 43.0466C167.107 43.1027 167.045 43.1328 166.981 43.1328Z" fill="#07242B"/>
<path d="M177.025 80.9396C177.016 80.9396 177.007 80.9389 176.999 80.9378C176.889 80.9232 176.813 80.8223 176.827 80.7124C176.892 80.2208 178.425 68.6569 179.452 67.3672C179.521 67.2806 179.647 67.2669 179.733 67.336C179.819 67.4053 179.833 67.5317 179.764 67.6182C178.969 68.6166 177.66 77.4469 177.223 80.7651C177.209 80.8661 177.124 80.9396 177.025 80.9396Z" fill="#07242B"/>
<path d="M164.9 97.6826C162.979 97.6826 161.285 97.5776 159.878 97.4375C155.643 97.0156 153.026 96.1915 153 96.1832C152.895 96.1497 152.837 96.0369 152.87 95.9312C152.904 95.8255 153.016 95.767 153.121 95.8004C153.147 95.8086 155.733 96.6222 159.93 97.0391C163.801 97.424 169.874 97.5399 176.818 95.9085C176.926 95.8831 177.033 95.9504 177.058 96.0584C177.083 96.1663 177.016 96.2744 176.909 96.2996C172.43 97.3517 168.309 97.6826 164.9 97.6826Z" fill="#07242B"/>
<path d="M141.713 82.2255C142.272 81.6287 142.691 81.1058 144.131 81.5472C148.056 82.7501 160.872 86.4515 164.596 87.9137C164.928 88.0067 164.701 88.0555 164.949 88.1335C164.119 89.373 163.981 92.2371 163.903 92.5631C161.6 92.383 144.55 92.462 140.663 88.9687C138.164 86.7228 140.369 83.6583 141.713 82.2255Z" fill="#F59979"/>
<path d="M174.438 89.8579C173.941 89.6818 172.342 89.1082 171.037 88.5508C170.555 88.3448 170.063 88.1666 169.563 88.0108C168.247 87.6011 165.577 86.8465 164.75 88.1265C164.683 88.23 165.638 91.4187 169.895 91.042C169.907 91.0517 169.574 90.1549 172.108 90.577C172.559 90.7156 174.521 90.9622 174.628 90.1965C174.649 90.042 174.566 89.903 174.438 89.8579Z" fill="#F59979"/>
<path d="M139.525 86.1671C139.5 86.1591 139.474 86.1505 139.449 86.141C139.148 86.027 138.896 85.709 138.97 85.3934C138.994 85.2867 139.054 85.1889 139.066 85.0801C139.084 84.9228 139.003 84.773 138.974 84.6176C138.891 84.1901 139.193 83.7977 139.369 83.4001C139.674 82.7127 139.61 81.9418 139.782 81.2224C139.969 80.4401 140.185 79.6433 140.408 78.8672C141.063 76.5835 141.911 74.3552 142.867 72.1827C144.333 68.8501 145.755 65.3482 148.193 62.6024C148.633 62.107 149.311 61.469 149.957 61.3284C153.95 60.4583 158.206 62.724 158.075 66.7811C157.997 69.1616 156.701 71.573 155.642 73.6385C154.285 76.2837 152.885 78.9878 150.795 81.1047C150.629 81.2724 150.45 81.506 150.549 81.7203C150.615 81.8617 150.778 81.927 150.878 82.046C151.151 82.3696 150.828 82.8767 150.443 83.0512C148.617 83.879 146.626 84.4396 144.722 85.0521C143.831 85.3388 142.94 85.6212 142.031 85.8464C141.322 86.0221 140.27 86.3976 139.525 86.1671Z" fill="#AB4F47"/>
<path d="M151.712 80.2904C151.701 80.2904 151.69 80.2894 151.679 80.2876C151.57 80.2695 151.497 80.166 151.515 80.0566C151.529 79.9705 152.915 71.4015 150.995 67.321C150.948 67.2207 150.991 67.101 151.09 67.0535C151.19 67.0061 151.309 67.0489 151.356 67.1492C153.33 71.3436 151.968 79.766 151.909 80.1225C151.893 80.2207 151.808 80.2904 151.712 80.2904Z" fill="#07242B"/>
<path d="M146.17 82.7504C146.078 82.7504 145.996 82.6871 145.975 82.5939C145.951 82.4857 146.018 82.3782 146.126 82.3537L150.376 81.3868C150.483 81.3623 150.59 81.4303 150.614 81.5384C150.639 81.6465 150.571 81.7541 150.464 81.7785L146.214 82.7454C146.199 82.7488 146.184 82.7504 146.17 82.7504Z" fill="#07242B"/>
<path d="M165.311 87.8526C165.311 87.8526 169.172 88.2707 170.922 89.3462C170.461 90.9501 169.938 94.2663 168.254 95.4961C166.599 95.1746 165.439 94.5944 163.522 92.3684C162.707 92.77 161.531 88.0839 163.744 87.9202C164.71 87.8486 165.311 87.8526 165.311 87.8526Z" fill="#F59979"/>
<path d="M170.407 89.1346C170.402 89.1153 170.399 89.1043 170.399 89.1043C170.399 89.1043 170.406 89.1075 170.419 89.1134L170.436 89.083C170.436 89.083 170.506 89.1285 170.621 89.2062C171.735 89.721 176.656 92.0478 176.363 92.8377C176.245 93.0471 175.793 93.0706 174.921 92.8363C175.924 93.3127 176.708 93.8046 176.637 94.1559C176.558 94.3672 176.304 94.506 175.603 94.4282C176.02 94.656 176.276 94.8791 176.248 95.0783C176.17 95.3288 175.851 95.4958 174.848 95.3759C174.987 95.4779 175.063 95.5829 175.06 95.6901C174.982 96.1023 174.535 96.5354 171.326 96.0471C168.953 95.8278 167 95.1197 167 95.1197L170.407 89.1346Z" fill="#F59979"/>
<path d="M175.603 94.6293C175.582 94.6293 175.561 94.6259 175.539 94.6186L170.643 92.9527C170.539 92.9172 170.483 92.8032 170.518 92.698C170.553 92.593 170.667 92.5366 170.771 92.5722L175.667 94.2382C175.772 94.2736 175.828 94.3877 175.792 94.4928C175.764 94.5765 175.687 94.6293 175.603 94.6293Z" fill="#07242B"/>
<path d="M174.849 95.5766C174.835 95.5766 174.82 95.5751 174.806 95.572C174.659 95.54 171.198 94.7837 170.233 94.4285C170.13 94.3904 170.076 94.2751 170.114 94.1709C170.152 94.0667 170.267 94.0133 170.37 94.0513C171.31 94.3971 174.855 95.1717 174.891 95.1795C174.999 95.203 175.067 95.3099 175.044 95.4182C175.023 95.5124 174.941 95.5766 174.849 95.5766Z" fill="#07242B"/>
<path d="M175.072 93.1442C175.047 93.1442 175.021 93.1393 174.996 93.1292L171.468 91.6738C171.366 91.6316 171.317 91.5144 171.359 91.4118C171.4 91.3091 171.517 91.2602 171.619 91.3021L175.148 92.7576C175.25 92.7997 175.298 92.917 175.257 93.0196C175.225 93.0972 175.15 93.1442 175.072 93.1442Z" fill="#07242B"/>
<path d="M230.349 31.0956H192.415C187.063 31.0956 182.725 26.7314 182.725 21.3479V3.99087C182.725 -1.39261 187.063 -5.75684 192.415 -5.75684H230.349C235.701 -5.75684 240.04 -1.39269 240.04 3.99087V21.348C240.04 26.7315 235.701 31.0956 230.349 31.0956Z" fill="#708A54"/>
<path d="M194.747 4.54004H200.991C202.228 4.54004 203.15 4.59193 203.757 4.69547C204.364 4.79917 204.908 5.0154 205.387 5.34401C205.867 5.67277 206.267 6.11044 206.586 6.65717C206.906 7.2039 207.066 7.81671 207.066 8.49553C207.066 9.23168 206.869 9.90703 206.474 10.5215C206.08 11.1362 205.545 11.5971 204.871 11.9044C205.823 12.1831 206.554 12.6584 207.066 13.3301C207.577 14.0019 207.833 14.7916 207.833 15.6992C207.833 16.4139 207.668 17.1088 207.338 17.7841C207.007 18.4594 206.556 18.9991 205.984 19.4028C205.412 19.8066 204.707 20.055 203.869 20.1478C203.343 20.2051 202.075 20.2407 200.064 20.2549H194.747V4.54004ZM197.901 7.15556V10.7896H199.968C201.197 10.7896 201.961 10.7718 202.26 10.7359C202.799 10.6717 203.224 10.484 203.533 10.1732C203.842 9.86232 203.997 9.45328 203.997 8.94582C203.997 8.45989 203.864 8.06512 203.597 7.76128C203.331 7.45759 202.934 7.27354 202.409 7.20927C202.096 7.17362 201.197 7.15564 199.713 7.15564L197.901 7.15556ZM197.901 13.4051V17.6072H200.821C201.958 17.6072 202.679 17.5751 202.984 17.5108C203.453 17.4251 203.835 17.216 204.13 16.8837C204.425 16.5514 204.572 16.1065 204.572 15.5491C204.572 15.0774 204.458 14.6773 204.231 14.3485C204.004 14.0199 203.675 13.7803 203.245 13.6303C202.815 13.4802 201.883 13.4052 200.448 13.4052L197.901 13.4051Z" fill="white"/>
<path d="M210.401 20.2549V4.54004H213.556V20.2549H210.401Z" fill="white"/>
<path d="M216.55 4.54004H222.316C223.616 4.54004 224.607 4.64019 225.289 4.84017C226.205 5.11184 226.99 5.59423 227.644 6.28732C228.298 6.98057 228.795 7.82926 229.136 8.83321C229.477 9.83733 229.648 11.0754 229.648 12.5476C229.648 13.8411 229.488 14.956 229.168 15.8921C228.777 17.0356 228.22 17.961 227.495 18.6685C226.948 19.2045 226.209 19.6226 225.278 19.9227C224.582 20.1443 223.651 20.255 222.486 20.255H216.55L216.55 4.54004ZM219.705 7.19846V17.6072H222.06C222.941 17.6072 223.577 17.5572 223.968 17.4571C224.479 17.3285 224.903 17.1105 225.241 16.8032C225.578 16.496 225.854 15.9903 226.067 15.2863C226.28 14.5825 226.387 13.6231 226.387 12.4081C226.387 11.1933 226.28 10.2607 226.067 9.61029C225.854 8.9601 225.555 8.45255 225.172 8.08807C224.788 7.72358 224.301 7.47707 223.712 7.34845C223.271 7.24846 222.408 7.19838 221.122 7.19838L219.705 7.19846Z" fill="white"/>
<path d="M184.485 22.1045C187.142 24.1742 189.8 26.2439 192.458 28.3136C189.371 31.4182 186.285 34.5228 183.199 37.6274C183.627 32.4531 184.056 27.2788 184.485 22.1045Z" fill="#708A54"/>
</g>
<defs>
<linearGradient id="paint0_linear_26823_230994" x1="120.04" y1="94.4278" x2="126.43" y2="94.4278" gradientUnits="userSpaceOnUse">
<stop stop-color="#F4C467"/>
<stop offset="1" stop-color="#F4B267"/>
</linearGradient>
<linearGradient id="paint1_linear_26823_230994" x1="243.912" y1="5.75599" x2="250.302" y2="5.75599" gradientUnits="userSpaceOnUse">
<stop stop-color="#F4C467"/>
<stop offset="1" stop-color="#F4B267"/>
</linearGradient>
<linearGradient id="paint2_linear_26823_230994" x1="364.577" y1="7.30922" x2="370.427" y2="7.30922" gradientUnits="userSpaceOnUse">
<stop stop-color="#F4C467"/>
<stop offset="1" stop-color="#F4B267"/>
</linearGradient>
<linearGradient id="paint3_linear_26823_230994" x1="383.855" y1="60.6166" x2="391.725" y2="60.6166" gradientUnits="userSpaceOnUse">
<stop stop-color="#F4C467"/>
<stop offset="1" stop-color="#F4B267"/>
</linearGradient>
<linearGradient id="paint4_linear_26823_230994" x1="292.728" y1="4.36694" x2="303.108" y2="4.36694" gradientUnits="userSpaceOnUse">
<stop stop-color="#F4C467"/>
<stop offset="1" stop-color="#F4B267"/>
</linearGradient>
<clipPath id="clip0_26823_230994">
<rect width="520" height="255" fill="white" transform="translate(0 -49)"/>
</clipPath>
</defs>
</svg>
