<svg width="336" height="200" viewBox="0 0 336 200" fill="none" xmlns="http://www.w3.org/2000/svg">
<g opacity="0.249928">
<mask id="path-1-inside-1_29212_2748" fill="white">
<path d="M40.2863 30.5235C40.2863 -40.046 97.4942 -97.2539 168.064 -97.2539C238.633 -97.2539 295.841 -40.046 295.841 30.5235C295.841 101.093 238.633 158.301 168.064 158.301C97.4942 158.301 40.2863 101.093 40.2863 30.5235Z"/>
</mask>
<path d="M40.2863 30.5235M295.841 30.5235M295.841 30.5235M40.2863 30.5235M168.064 -97.2539M295.841 30.5235M168.064 158.301M40.2863 30.5235M168.064 158.301V154.369C99.6655 154.369 44.2179 98.9216 44.2179 30.5235H40.2863H36.3546C36.3546 103.264 95.3228 162.233 168.064 162.233V158.301ZM295.841 30.5235H291.909C291.909 98.9216 236.462 154.369 168.064 154.369V158.301V162.233C240.805 162.233 299.773 103.264 299.773 30.5235H295.841ZM168.064 -97.2539V-93.3223C236.462 -93.3223 291.909 -37.8746 291.909 30.5235H295.841H299.773C299.773 -42.2174 240.805 -101.186 168.064 -101.186V-97.2539ZM168.064 -97.2539V-101.186C95.3228 -101.186 36.3546 -42.2174 36.3546 30.5235H40.2863H44.2179C44.2179 -37.8746 99.6655 -93.3223 168.064 -93.3223V-97.2539Z" fill="white" fill-opacity="0.3" mask="url(#path-1-inside-1_29212_2748)"/>
</g>
<g opacity="0.139136">
<mask id="path-3-inside-2_29212_2748" fill="white">
<path d="M0.5 30.5247C0.5 -62.0182 75.5209 -137.039 168.064 -137.039C260.607 -137.039 335.628 -62.0182 335.628 30.5247C335.628 123.068 260.607 198.089 168.064 198.089C75.5209 198.089 0.5 123.068 0.5 30.5247Z"/>
</mask>
<path d="M0.5 30.5247M335.628 30.5247M335.628 30.5247M0.5 30.5247M168.064 -137.039M335.628 30.5247M168.064 198.089M0.5 30.5247M168.064 198.089V194.947C77.256 194.947 3.64182 121.332 3.64182 30.5247H0.5H-2.64182C-2.64182 124.803 73.7857 201.23 168.064 201.23V198.089ZM335.628 30.5247H332.486C332.486 121.332 258.872 194.947 168.064 194.947V198.089V201.23C262.342 201.23 338.769 124.803 338.769 30.5247H335.628ZM168.064 -137.039V-133.897C258.872 -133.897 332.486 -60.283 332.486 30.5247H335.628H338.769C338.769 -63.7534 262.342 -140.181 168.064 -140.181V-137.039ZM168.064 -137.039V-140.181C73.7857 -140.181 -2.64182 -63.7534 -2.64182 30.5247H0.5H3.64182C3.64182 -60.283 77.256 -133.897 168.064 -133.897V-137.039Z" fill="white" fill-opacity="0.2" mask="url(#path-3-inside-2_29212_2748)"/>
</g>
</svg>
