<svg width="70" height="70" viewBox="0 0 70 70" fill="none" xmlns="http://www.w3.org/2000/svg">
<g clip-path="url(#clip0_13618_7100)">
<path d="M38.3683 43.3937L37.9337 43.8283C36.2246 45.5375 36.2246 48.3054 37.9337 50.0145C38.7883 50.8691 39.9083 51.295 41.0283 51.295C42.1483 51.295 43.2683 50.8691 44.1229 50.0145L64.5396 29.5979C66.2487 27.8887 66.2487 25.1208 64.5396 23.4116C62.8304 21.7024 60.0625 21.7024 58.3533 23.4116L57.5542 24.2108L41.6204 8.31787L42.4662 7.47203C44.1754 5.76287 44.1754 2.99495 42.4662 1.28578C40.7571 -0.423385 37.9892 -0.423385 36.28 1.28578L15.8633 21.7024C14.1542 23.4116 14.1542 26.1795 15.8633 27.8887C16.7179 28.7433 17.8379 29.1691 18.9579 29.1691C20.0779 29.1691 21.1979 28.7433 22.0525 27.8887L22.4375 27.5037L27.3375 32.392L1.2975 58.1404C-0.420419 59.8379 -0.437919 62.6087 1.2625 64.3266C2.11708 65.1929 3.24583 65.6245 4.37166 65.6245C5.48291 65.6245 6.59708 65.2016 7.44875 64.3587L33.5296 38.5666L38.3683 43.3937ZM35.4342 14.5012L51.3679 30.3941L44.5575 37.2045L28.6237 21.3116L35.4342 14.5012ZM69.9996 65.6245C69.9996 68.0395 68.0396 69.9995 65.6246 69.9995H30.6246C28.2096 69.9995 26.2496 68.0395 26.2496 65.6245C26.2496 63.6762 27.53 62.0458 29.2917 61.48C29.8808 58.0441 32.8587 55.4162 36.4579 55.4162H59.7912C63.3933 55.4162 66.3712 58.0441 66.9575 61.48C68.7162 62.0458 69.9996 63.6791 69.9996 65.6245Z" fill="#DBDBDB"/>
</g>
<defs>
<clipPath id="clip0_13618_7100">
<rect width="70" height="70" fill="white"/>
</clipPath>
</defs>
</svg>
