<svg width="26" height="26" viewBox="0 0 26 26" fill="none" xmlns="http://www.w3.org/2000/svg">
<path fill-rule="evenodd" clip-rule="evenodd" d="M14.6033 12.9941V24.1965H12.4756V12.9941C12.8209 13.0602 13.1764 13.0957 13.5369 13.0957C13.8975 13.0957 14.2631 13.0602 14.6033 12.9941Z" fill="#965F00"/>
<path fill-rule="evenodd" clip-rule="evenodd" d="M15.6191 15.5086C16.3352 15.4781 16.3859 16.834 15.6699 16.8594L16.0152 16.8492C16.7312 16.8238 16.782 18.1746 16.066 18.2L15.7207 18.2152C16.4266 18.1898 16.4875 19.5102 15.7969 19.566C15.548 19.5762 15.2281 19.6016 15.1012 19.5914C15.807 19.566 15.868 20.8863 15.1773 20.9422C14.2582 21.0234 13.1512 21.2824 12.227 21.4551L9.5 21.1707L9.03789 21.0844L8.17969 16.5445L8.43359 16.4836C10.5562 14.9906 9.50508 14.6758 12.4758 14.5488V15.3562L15.6191 15.5086Z" fill="#FAD1A2"/>
<path fill-rule="evenodd" clip-rule="evenodd" d="M6.75391 16.4004L8.11168 16.1435L9.13177 21.5346L7.774 21.7915L6.75391 16.4004Z" fill="#A15030"/>
<path d="M12.7395 20.0143C12.6024 20.0245 12.4806 19.9179 12.4704 19.7807C12.4602 19.6436 12.5669 19.5218 12.704 19.5116L15.0755 19.3491C15.2126 19.339 15.3345 19.4456 15.3446 19.5827C15.3548 19.7198 15.2481 19.8417 15.111 19.8518L12.7395 20.0143ZM13.4606 17.2518C13.3235 17.262 13.2016 17.1554 13.1915 17.0132C13.1813 16.8761 13.288 16.7542 13.4302 16.744L15.6544 16.612C15.7915 16.6018 15.9134 16.7085 15.9235 16.8507C15.9337 16.9878 15.827 17.1097 15.6848 17.1198L13.4606 17.2518ZM13.3997 18.5011C13.2575 18.5011 13.1458 18.3893 13.1458 18.2522C13.1458 18.1151 13.2575 17.9983 13.3946 17.9983L15.7204 17.9679C15.8575 17.9679 15.9743 18.0796 15.9743 18.2167C15.9743 18.3538 15.8626 18.4706 15.7255 18.4706L13.3997 18.5011Z" fill="#CCAA84"/>
<path fill-rule="evenodd" clip-rule="evenodd" d="M13.542 13.0965C16.66 13.0965 19.2041 10.5523 19.2041 7.43438C19.199 4.32148 16.66 1.77734 13.542 1.77734C10.424 1.77734 7.87988 4.32148 7.87988 7.43945C7.87988 10.5523 10.424 13.0965 13.542 13.0965Z" fill="#EF8700"/>
<path fill-rule="evenodd" clip-rule="evenodd" d="M13.5419 12.0648C16.0912 12.0648 18.1681 9.98789 18.1681 7.43867C18.1681 4.88945 16.0912 2.8125 13.5419 2.8125C10.9927 2.8125 8.91577 4.88945 8.91577 7.43867C8.91577 9.98281 10.9927 12.0648 13.5419 12.0648Z" fill="white"/>
<path fill-rule="evenodd" clip-rule="evenodd" d="M11.272 4.10312C11.4193 4.00156 11.5716 3.90508 11.7341 3.82383C12.3791 3.48359 13.1154 3.29062 13.8974 3.29062C14.3443 3.29062 14.7759 3.35156 15.1873 3.47344C15.5681 3.58516 15.9337 3.74258 16.2689 3.9457C16.4162 4.03711 16.5634 4.13359 16.7005 4.24023C16.9697 4.44336 17.2134 4.67695 17.4318 4.93594L17.4369 4.94102C17.4369 4.94102 17.4369 4.93594 17.4318 4.93594C17.2185 4.60586 16.9646 4.30625 16.6802 4.04219C16.6041 3.97109 16.5279 3.90508 16.4466 3.84414C16.0759 3.54453 15.6544 3.30078 15.1974 3.12305C14.6845 2.925 14.1259 2.81836 13.5419 2.81836C12.958 2.81836 12.3994 2.925 11.8865 3.12305C11.4294 3.30078 11.013 3.53945 10.6373 3.84414C10.556 3.91016 10.4798 3.97617 10.4037 4.04219C10.1193 4.30117 9.86538 4.60078 9.6521 4.92578C9.18491 5.64687 8.91577 6.51016 8.91577 7.43438C8.91577 8.57188 9.3271 9.60781 10.0025 10.4152C9.5353 9.69414 9.26616 8.83594 9.26616 7.91172C9.26616 6.33242 10.0583 4.93594 11.272 4.10312Z" fill="white"/>
<path d="M11.7998 8.94375C11.7998 8.80664 11.9115 8.68984 12.0537 8.68984C12.1908 8.68984 12.3076 8.80156 12.3076 8.94375C12.3076 9.1875 12.4701 9.41094 12.7291 9.58359C12.9627 9.74102 13.2775 9.84766 13.6279 9.8832V7.95859C12.6834 7.80625 11.7998 7.59297 11.7998 6.5418C11.7998 6.12031 12.0486 5.74453 12.4498 5.48047C12.7646 5.27227 13.1709 5.13516 13.6279 5.09961V4.54102C13.6279 4.40391 13.7396 4.28711 13.8818 4.28711C14.024 4.28711 14.1357 4.39883 14.1357 4.54102V5.09961C14.5877 5.13516 14.999 5.27734 15.3139 5.48047C15.715 5.74453 15.9639 6.12031 15.9639 6.5418C15.9639 6.67891 15.8521 6.7957 15.71 6.7957C15.5678 6.7957 15.4561 6.68398 15.4561 6.5418C15.4561 6.29805 15.2986 6.07461 15.0396 5.90195C14.8061 5.74453 14.4912 5.63789 14.1408 5.60742V7.53203C15.0854 7.68438 15.9639 7.89766 15.9639 8.94883C15.9639 9.37031 15.715 9.74609 15.3139 10.0102C14.999 10.2184 14.5928 10.3555 14.1357 10.3961V10.9547C14.1357 11.0918 14.024 11.2086 13.8818 11.2086C13.7447 11.2086 13.6279 11.0969 13.6279 10.9547V10.3961C13.176 10.3555 12.7646 10.2184 12.4498 10.0102C12.0486 9.74102 11.7998 9.36523 11.7998 8.94375ZM14.1357 9.8832C14.4861 9.84766 14.7959 9.74102 15.0346 9.58359C15.2936 9.41602 15.451 9.1875 15.451 8.94375C15.451 8.3293 14.8314 8.15664 14.1357 8.03984V9.8832ZM13.6279 5.60234C13.2775 5.63789 12.9627 5.74453 12.7291 5.89687C12.4701 6.06953 12.3076 6.29297 12.3076 6.53672C12.3076 7.15117 12.9271 7.32383 13.6279 7.44062V5.60234Z" fill="#FFDCBE"/>
<path d="M11.46 8.63828C11.46 8.50117 11.5717 8.38438 11.7139 8.38438C11.851 8.38438 11.9678 8.49609 11.9678 8.63828C11.9678 8.88203 12.1252 9.10547 12.3893 9.27812C12.6229 9.43555 12.9326 9.54219 13.2881 9.57773V7.65312C12.3436 7.50078 11.46 7.2875 11.46 6.23633C11.46 5.81484 11.7088 5.43906 12.11 5.175C12.4248 4.9668 12.8311 4.82969 13.2881 4.78906V4.23047C13.2881 4.08828 13.3998 3.97656 13.542 3.97656C13.6842 3.97656 13.7959 4.08828 13.7959 4.23047V4.78906C14.2479 4.82461 14.6592 4.9668 14.974 5.175C15.3752 5.43906 15.624 5.81484 15.624 6.23633C15.624 6.37852 15.5123 6.49023 15.3701 6.49023C15.233 6.49023 15.1162 6.37852 15.1162 6.23633C15.1162 5.99258 14.9588 5.76914 14.6947 5.59648C14.4611 5.44414 14.1514 5.33242 13.7959 5.30195V7.22656C14.7404 7.37891 15.624 7.59219 15.624 8.64336C15.624 9.06484 15.3752 9.44063 14.974 9.70469C14.6592 9.91289 14.2529 10.05 13.7959 10.0906V10.6492C13.7959 10.7863 13.6842 10.9031 13.542 10.9031C13.3998 10.9031 13.2881 10.7914 13.2881 10.6492V10.0906C12.8361 10.05 12.4248 9.91289 12.11 9.70469C11.7088 9.43555 11.46 9.06484 11.46 8.63828ZM13.7959 9.57773C14.1463 9.54219 14.4611 9.43555 14.6947 9.27812C14.9537 9.11055 15.1162 8.88203 15.1162 8.63828C15.1162 8.02383 14.4967 7.85117 13.7959 7.73438V9.57773ZM13.2881 5.29688C12.9377 5.33242 12.6229 5.43906 12.3893 5.59141C12.1303 5.76406 11.9678 5.9875 11.9678 6.23125C11.9678 6.8457 12.5873 7.01836 13.2881 7.13516V5.29688Z" fill="#FD7804"/>
</svg>
