<svg width="17" height="19" viewBox="0 0 17 19" fill="none" xmlns="http://www.w3.org/2000/svg">
<path d="M1.92201 14.0021C1.72689 13.7876 1.62902 13.5151 1.64298 13.2261C1.64489 13.1548 1.65611 13.0823 1.67405 13.0115C1.72488 12.8108 1.83597 12.6271 1.99423 12.4842L7.65622 7.31237L6.46584 5.98253C6.4633 5.98548 6.46119 5.98673 6.45909 5.98799C6.06482 6.31166 5.47846 6.2744 5.1286 5.89146C4.95114 5.69935 4.85948 5.4518 4.8717 5.19108C4.87318 5.12148 4.88309 5.05399 4.8989 4.9916C4.94503 4.80946 5.04429 4.64437 5.1852 4.51317L8.68331 1.30212C8.93549 1.07169 9.27369 0.997635 9.58232 1.07581C9.76107 1.12109 9.92869 1.21738 10.0624 1.36253C10.2382 1.55421 10.3277 1.80301 10.3193 2.06289C10.3071 2.32361 10.1941 2.56419 10.0025 2.73996L13.8266 7.05558L13.8287 7.05433L13.8452 7.03876C14.0373 6.86131 14.2882 6.77052 14.5489 6.78272C14.808 6.7945 15.0494 6.90411 15.2252 7.09578C15.5876 7.49269 15.5621 8.11075 15.1648 8.47491L11.6683 11.6864C11.2714 12.0489 10.6534 12.0233 10.2909 11.6264C10.1151 11.4347 10.0222 11.1851 10.034 10.926C10.0372 10.8569 10.045 10.7906 10.0616 10.7249C10.1048 10.5545 10.1943 10.3995 10.3229 10.2742L9.09387 8.90585L3.43821 14.0739C2.99861 14.4704 2.31938 14.4383 1.92201 14.0021Z" fill="#ADB0B7"/>
</svg>
