<svg width="55" height="55" viewBox="0 0 55 55" fill="none" xmlns="http://www.w3.org/2000/svg">
<g clip-path="url(#clip0_24530_61722)">
<path d="M27.5 0C12.3127 0 0 12.3084 0 27.5C0 42.6916 12.3127 55 27.5 55C42.6873 55 55 42.6841 55 27.5C55 12.3159 42.6873 0 27.5 0Z" fill="#2AD352"/>
<path d="M2.55385e-05 27.5C-0.00618229 32.0455 1.11944 36.5211 3.27532 40.5228C6.02197 41.3292 8.87006 41.7376 11.7326 41.7356C28.2649 41.7356 41.6668 28.3336 41.6668 11.8014C41.6693 8.89343 41.2481 6.00062 40.4164 3.2141C36.4409 1.09652 32.0043 -0.00746297 27.5 3.79694e-05C12.3127 3.79694e-05 2.55385e-05 12.3084 2.55385e-05 27.5Z" fill="#74DA7F"/>
<path d="M43.1836 22.9437L26.6546 40.302C26.2041 40.7745 25.6629 41.1513 25.0634 41.4097C24.4638 41.6681 23.8183 41.8029 23.1655 41.8059H23.144C22.4948 41.8061 21.8522 41.6758 21.2543 41.4228C20.6564 41.1698 20.1154 40.7993 19.6635 40.3331L10.8925 31.299C10.4394 30.8441 10.081 30.3037 9.83836 29.7092C9.5957 29.1147 9.47352 28.4779 9.47893 27.8358C9.48434 27.1937 9.61723 26.5591 9.86987 25.9688C10.1225 25.3784 10.4899 24.8442 10.9507 24.397C11.4115 23.9498 11.9565 23.5985 12.5541 23.3637C13.1517 23.1288 13.7901 23.015 14.432 23.0288C15.074 23.0426 15.7068 23.1837 16.2938 23.4441C16.8808 23.7044 17.4102 24.0788 17.8513 24.5453L23.1096 29.9616L36.1603 16.2567C36.5975 15.7879 37.1233 15.4104 37.7073 15.1462C38.2913 14.8819 38.9218 14.736 39.5626 14.717C40.2033 14.698 40.8414 14.8061 41.4401 15.0353C42.0387 15.2645 42.586 15.6101 43.0502 16.0521C43.5144 16.4941 43.8864 17.0237 44.1446 17.6104C44.4029 18.1971 44.5422 18.8292 44.5546 19.4701C44.567 20.1109 44.4522 20.7479 44.2169 21.3442C43.9816 21.9404 43.6303 22.4841 43.1836 22.9437Z" fill="white"/>
</g>
<defs>
<clipPath id="clip0_24530_61722">
<rect width="55" height="55" fill="white"/>
</clipPath>
</defs>
</svg>
