<svg width="20" height="20" viewBox="0 0 20 20" fill="none" xmlns="http://www.w3.org/2000/svg">
<path fill-rule="evenodd" clip-rule="evenodd" d="M9.375 12.4977C9.375 12.0002 9.1775 11.5233 8.82563 11.172C8.47438 10.8202 7.9975 10.6227 7.5 10.6227C6.25875 10.6227 4.36625 10.6227 3.125 10.6227C2.6275 10.6227 2.15062 10.8202 1.79937 11.172C1.4475 11.5233 1.25 12.0002 1.25 12.4977V16.8727C1.25 17.3702 1.4475 17.847 1.79937 18.1983C2.15062 18.5502 2.6275 18.7477 3.125 18.7477H7.5C7.9975 18.7477 8.47438 18.5502 8.82563 18.1983C9.1775 17.847 9.375 17.3702 9.375 16.8727V12.4977ZM18.75 12.4977C18.75 12.0002 18.5525 11.5233 18.2006 11.172C17.8494 10.8202 17.3725 10.6227 16.875 10.6227C15.6337 10.6227 13.7413 10.6227 12.5 10.6227C12.0025 10.6227 11.5256 10.8202 11.1744 11.172C10.8225 11.5233 10.625 12.0002 10.625 12.4977V16.8727C10.625 17.3702 10.8225 17.847 11.1744 18.1983C11.5256 18.5502 12.0025 18.7477 12.5 18.7477H16.875C17.3725 18.7477 17.8494 18.5502 18.2006 18.1983C18.5525 17.847 18.75 17.3702 18.75 16.8727V12.4977ZM16.0131 9.24328L18.6206 6.63578C19.3525 5.90391 19.3525 4.7164 18.6206 3.98453L16.0131 1.37703C15.2813 0.645156 14.0937 0.645156 13.3619 1.37703L10.7544 3.98453C10.0225 4.7164 10.0225 5.90391 10.7544 6.63578L13.3619 9.24328C14.0937 9.97516 15.2813 9.97516 16.0131 9.24328ZM9.375 3.12266C9.375 2.62516 9.1775 2.14828 8.82563 1.79703C8.47438 1.44515 7.9975 1.24766 7.5 1.24766C6.25875 1.24766 4.36625 1.24766 3.125 1.24766C2.6275 1.24766 2.15062 1.44515 1.79937 1.79703C1.4475 2.14828 1.25 2.62516 1.25 3.12266V7.49766C1.25 7.99516 1.4475 8.47203 1.79937 8.82328C2.15062 9.17516 2.6275 9.37266 3.125 9.37266H7.5C7.9975 9.37266 8.47438 9.17516 8.82563 8.82328C9.1775 8.47203 9.375 7.99516 9.375 7.49766V3.12266Z" fill="#1455AC"/>
</svg>
