<svg width="20" height="20" viewBox="0 0 20 20" fill="none" xmlns="http://www.w3.org/2000/svg">
<g clip-path="url(#clip0_24530_77694)">
<path fill-rule="evenodd" clip-rule="evenodd" d="M10.0029 0.00390625C15.5257 0.00390625 20.0029 4.47996 20.0029 10.0053C20.0029 15.5278 15.5257 20.0039 10.0029 20.0039C4.48008 20.0039 0.00292969 15.528 0.00292969 10.0053C0.00292969 4.47996 4.48035 0.00390625 10.0029 0.00390625ZM3.75289 13.7927L8.2568 9.92637L3.7548 6.06172C3.75356 6.07243 3.75291 6.0832 3.75285 6.09398L3.75289 13.7927ZM8.67281 10.2836L4.1277 14.1855H15.8784L11.3329 10.2836L10.1791 11.2741C10.1296 11.3164 10.0665 11.3395 10.0013 11.3391C9.9362 11.3387 9.87337 11.3149 9.82434 11.272L8.67281 10.2836ZM11.7491 9.92637L16.253 13.7927V6.09398C16.253 6.08319 16.2523 6.07241 16.2509 6.06172L11.749 9.92645L11.7491 9.92637ZM4.30801 5.82227L10.0029 10.711L15.6976 5.82227H4.30801Z" fill="#9B9B9B"/>
</g>
<defs>
<clipPath id="clip0_24530_77694">
<rect width="20" height="20" fill="white"/>
</clipPath>
</defs>
</svg>
