<svg width="13" height="13" viewBox="0 0 13 13" fill="none" xmlns="http://www.w3.org/2000/svg">
<path d="M6.7815 4.3155H5.5485V3.0825H6.7815M6.7815 9.2475H5.5485V5.5485H6.7815M6.165 0C5.3554 0 4.55373 0.159462 3.80576 0.469283C3.05778 0.779103 2.37816 1.23321 1.80569 1.80569C0.649525 2.96185 0 4.52994 0 6.165C0 7.80006 0.649525 9.36815 1.80569 10.5243C2.37816 11.0968 3.05778 11.5509 3.80576 11.8607C4.55373 12.1705 5.3554 12.33 6.165 12.33C7.80006 12.33 9.36815 11.6805 10.5243 10.5243C11.6805 9.36815 12.33 7.80006 12.33 6.165C12.33 5.3554 12.1705 4.55373 11.8607 3.80576C11.5509 3.05778 11.0968 2.37816 10.5243 1.80569C9.95184 1.23321 9.27222 0.779103 8.52424 0.469283C7.77627 0.159462 6.9746 0 6.165 0Z" fill="#A7A7A7"/>
</svg>
