<svg width="16" height="16" viewBox="0 0 16 16" fill="none" xmlns="http://www.w3.org/2000/svg">
<path d="M10.0045 7.41088C10.0042 7.4128 10.0005 7.41456 10.0001 7.41648L10.0001 9.33328C10.0001 10.4362 9.10293 11.3333 8.00005 11.3333C6.89717 11.3333 6.00005 10.4362 6.00005 9.33328L6.00005 7.41632C5.99957 7.4144 5.99573 7.4128 5.99557 7.41088C5.95333 7.04496 5.62245 6.7832 5.25669 6.8256C4.38597 6.92656 3.50597 7.0776 2.64213 7.27488C2.36309 7.3384 2.15605 7.57248 2.12709 7.85696C1.95845 9.50144 1.95845 11.1653 2.12709 12.8104C2.15605 13.0946 2.36309 13.3286 2.64181 13.3925C4.40917 13.7955 6.21189 14 8.00005 14C9.78853 14 11.5906 13.7955 13.3581 13.3923C13.6369 13.3285 13.8437 13.0944 13.8732 12.8102C13.9572 11.989 14.0001 11.1557 14.0001 10.3333C14.0001 9.51088 13.957 8.67776 13.8732 7.85632C13.8439 7.57184 13.6369 7.33776 13.3581 7.27456C12.4935 7.07728 11.614 6.92624 10.7436 6.82528C10.3777 6.7832 10.0469 7.04496 10.0045 7.41088Z" fill="#1455AC"/>
<path d="M7.52873 2.19536L5.52873 4.19536C5.26825 4.45584 5.26825 4.8776 5.52873 5.13808C5.78921 5.39856 6.21097 5.39856 6.47145 5.13808L7.33337 4.27616L7.33337 9.33328C7.33337 9.70144 7.63193 10 8.00009 10C8.36825 10 8.66681 9.70144 8.66681 9.33328L8.66681 4.276L9.52873 5.13792C9.78921 5.3984 10.211 5.3984 10.4715 5.13792C10.6017 5.00768 10.6668 4.83712 10.6668 4.66656C10.6668 4.496 10.6017 4.32544 10.4715 4.1952L8.47145 2.1952C8.21097 1.93488 7.78921 1.93488 7.52873 2.19536Z" fill="#1455AC"/>
</svg>
