<svg width="20" height="20" viewBox="0 0 20 20" fill="none" xmlns="http://www.w3.org/2000/svg">
<path d="M8.97542 15.1994L6.98376 18.6494C6.87542 18.841 6.66709 18.966 6.44209 18.966C6.41709 18.966 6.38376 18.966 6.35876 18.966C6.10876 18.9327 5.90042 18.7494 5.83376 18.5077L5.38376 16.8327L3.70876 17.2827C3.46709 17.3494 3.20042 17.2577 3.05042 17.0577C2.90042 16.8577 2.87542 16.5827 3.00876 16.366L4.80876 13.2494C5.05042 13.3994 5.30042 13.5327 5.55876 13.6244C6.06709 14.266 6.75876 14.7577 7.55042 15.016C7.96709 15.1577 8.40876 15.2244 8.85042 15.2244H8.96709L8.97542 15.1994ZM15.1838 13.2327C14.9504 13.3827 14.7004 13.5077 14.4338 13.6077C13.9171 14.2577 13.2254 14.741 12.4338 14.9994C12.0171 15.1327 11.5838 15.2077 11.1338 15.2077C11.0921 15.2077 11.0588 15.2077 11.0171 15.2077L13.0088 18.6577C13.1171 18.8494 13.3254 18.9744 13.5504 18.9744H13.6338C13.8838 18.941 14.0921 18.7577 14.1588 18.516L14.6088 16.841L16.2838 17.291C16.5254 17.3577 16.7838 17.266 16.9421 17.066C17.0921 16.866 17.1171 16.591 16.9838 16.3744L15.1838 13.2577V13.2327ZM16.6421 7.49938C16.6421 8.20771 16.3838 8.89938 15.9171 9.43271C15.9754 10.1577 15.7754 10.841 15.3671 11.3994C14.9504 11.9744 14.3421 12.3744 13.6588 12.5327C13.2921 13.1327 12.7254 13.591 12.0504 13.8077C11.7504 13.9077 11.4504 13.9494 11.1421 13.9494C10.7504 13.9494 10.3671 13.8744 10.0004 13.7244C9.35042 13.9994 8.61709 14.0244 7.95042 13.8077C7.27542 13.591 6.70876 13.1327 6.34209 12.541C5.67542 12.391 5.05042 11.9827 4.63376 11.3994C4.21709 10.8244 4.02542 10.1244 4.07542 9.42438C3.62542 8.89938 3.35876 8.20771 3.35876 7.49938C3.35876 6.79105 3.61709 6.09938 4.08376 5.56605C4.02542 4.84105 4.22542 4.15771 4.63376 3.59938C5.05042 3.02438 5.65876 2.62438 6.34209 2.46605C6.70876 1.86605 7.27542 1.40771 7.95042 1.19105C8.62542 0.974381 9.35876 1.00771 10.0004 1.27438C10.6504 1.00771 11.3838 0.974381 12.0504 1.19105C12.7254 1.40771 13.2921 1.86605 13.6588 2.45771C14.3254 2.60771 14.9504 3.01605 15.3671 3.59938C15.7838 4.17438 15.9754 4.87438 15.9254 5.57438C16.3754 6.09938 16.6421 6.79105 16.6421 7.49938ZM12.2588 6.93271C12.1838 6.70771 11.9921 6.54105 11.7504 6.50771L10.9254 6.39105L10.5588 5.64105C10.3504 5.21605 9.65042 5.21605 9.43376 5.64105L9.06709 6.39105L8.24209 6.50771C8.00876 6.54105 7.80876 6.70771 7.73376 6.93271C7.65876 7.15771 7.72542 7.40771 7.89209 7.57438L8.49209 8.15771L8.35042 8.98271C8.30876 9.21605 8.40876 9.45771 8.60042 9.59105C8.79209 9.73271 9.05042 9.74938 9.25876 9.64105L10.0004 9.24938L10.7421 9.64105C10.8338 9.69105 10.9338 9.71605 11.0338 9.71605C11.1671 9.71605 11.2921 9.67438 11.4004 9.59938C11.5921 9.45772 11.6921 9.22438 11.6504 8.99105L11.5088 8.16605L12.1088 7.58271C12.2754 7.41605 12.3421 7.16605 12.2671 6.94105L12.2588 6.93271Z" fill="#9B9B9B"/>
</svg>
