<svg width="20" height="20" viewBox="0 0 20 20" fill="none" xmlns="http://www.w3.org/2000/svg">
<path fill-rule="evenodd" clip-rule="evenodd" d="M10.228 2.69527C8.80662 2.64793 7.37062 3.03571 6.13085 3.86327C4.7384 4.79371 3.76529 6.16771 3.31707 7.70371C3.19329 7.6886 3.04507 7.69527 2.86907 7.74505C2.21196 7.93149 1.71773 8.46993 1.49551 8.94416C1.20729 9.56216 1.08573 10.3795 1.21396 11.2233C1.34129 12.0644 1.69662 12.7577 2.14107 13.1882C2.58685 13.6188 3.09018 13.7588 3.59018 13.6537C4.33462 13.4948 4.70373 13.3759 4.59951 12.6824L4.09485 9.32038C4.19662 7.50082 5.13862 5.78793 6.71418 4.7346C8.82307 3.32593 11.588 3.41616 13.5995 4.96038C14.9988 6.03327 15.8113 7.64082 15.9051 9.32838L15.5522 11.6802C14.7651 13.8342 12.8137 15.3262 10.5557 15.5379H9.05218C8.66418 15.5379 8.35173 15.8504 8.35173 16.2379V16.6073C8.35173 16.995 8.66418 17.3075 9.05218 17.3075H10.948C11.3357 17.3075 11.6468 16.995 11.6468 16.6073V16.4142C13.3495 15.9986 14.8357 14.9522 15.8035 13.4928L16.4108 13.6539C16.9051 13.7822 17.4144 13.6188 17.86 13.1884C18.3044 12.7577 18.6595 12.0646 18.7871 11.2235C18.9157 10.3797 18.7906 9.56371 18.5057 8.94438C18.2197 8.32505 17.7937 7.93171 17.302 7.7906C17.096 7.73127 16.8724 7.70949 16.6806 7.70371C16.2753 6.31482 15.4408 5.05171 14.2382 4.12949C13.0557 3.22216 11.6493 2.74193 10.228 2.69527Z" fill="#9B9B9B"/>
<path fill-rule="evenodd" clip-rule="evenodd" d="M12.4469 8.74446C12.948 8.74446 13.3542 9.15069 13.3553 9.65313C13.3542 10.1542 12.948 10.5616 12.4469 10.5616C11.9444 10.5616 11.5371 10.1542 11.5371 9.65313C11.5371 9.15091 11.9446 8.74446 12.4469 8.74446ZM10.0002 8.74446C10.5024 8.74446 10.9086 9.15069 10.9086 9.65313C10.9086 10.1542 10.5024 10.5616 10.0002 10.5616C9.49752 10.5616 9.0913 10.1542 9.0913 9.65313C9.0913 9.15091 9.49752 8.74446 10.0002 8.74446ZM7.55441 8.74446C8.05552 8.74446 8.46285 9.15069 8.46285 9.65313C8.46285 10.1542 8.05552 10.5616 7.55441 10.5616C7.05218 10.5616 6.64574 10.1542 6.64574 9.65313C6.64574 9.15091 7.05218 8.74446 7.55441 8.74446ZM10.0002 4.8418C7.33574 4.8418 5.18863 6.91824 5.18863 9.65313C5.18863 10.9667 5.6853 12.1276 6.49441 12.9794L6.2073 14.2665C6.11263 14.69 6.40641 14.9749 6.78707 14.7629L8.04396 14.0618C8.6413 14.3211 9.30196 14.4645 10.0002 14.4645C12.6655 14.4645 14.8113 12.3894 14.8113 9.65313C14.8113 6.91824 12.6655 4.8418 10.0002 4.8418Z" fill="#9B9B9B"/>
</svg>
