<svg width="20" height="20" viewBox="0 0 20 20" fill="none" xmlns="http://www.w3.org/2000/svg">
<g clip-path="url(#clip0_24530_77675)">
<path d="M10 20C15.5228 20 20 15.5228 20 10C20 4.47715 15.5228 0 10 0C4.47715 0 0 4.47715 0 10C0 15.5228 4.47715 20 10 20Z" fill="#9B9B9B"/>
<path d="M15.3907 8.88762C15.2431 9.72708 14.9024 10.4892 14.4419 11.1986C13.8282 12.1443 13.0446 12.9283 12.1677 13.6279C11.652 14.0355 11.1128 14.4125 10.5528 14.7568C10.2013 14.9736 9.83994 14.995 9.4872 14.7802C8.50517 14.1822 7.58603 13.5009 6.7708 12.6857C6.17001 12.0845 5.65009 11.4212 5.24423 10.6724C4.79892 9.85208 4.52548 8.97786 4.53134 8.03762C4.53759 7.06497 4.9329 6.26966 5.70634 5.67395C6.2833 5.22981 6.94345 5.03372 7.66806 5.07083C8.28017 5.10208 8.81611 5.34934 9.30048 5.70716C9.53134 5.87786 9.9833 6.28528 9.99072 6.29309C10.186 6.1263 10.3724 5.95598 10.5708 5.80169C11.0216 5.45012 11.5142 5.18411 12.0876 5.1013C12.8895 4.98411 13.6192 5.17942 14.2681 5.65677C14.8548 6.08104 15.2602 6.71072 15.4036 7.42044C15.5079 7.90872 15.4751 8.39973 15.3907 8.88762Z" fill="white"/>
</g>
<defs>
<clipPath id="clip0_24530_77675">
<rect width="20" height="20" fill="white"/>
</clipPath>
</defs>
</svg>
